<svg width="56" height="57" viewBox="0 0 56 57" fill="none" xmlns="http://www.w3.org/2000/svg">
<rect x="4" y="4.2959" width="48" height="48" rx="24" fill="#EBF2FF"/>
<rect x="4" y="4.2959" width="48" height="48" rx="24" stroke="#F7FAFF" stroke-width="8"/>
<path d="M34 19.2959C33.2044 19.2959 32.4413 19.612 31.8787 20.1746C31.3161 20.7372 31 21.5002 31 22.2959V34.2959C31 35.0915 31.3161 35.8546 31.8787 36.4172C32.4413 36.9798 33.2044 37.2959 34 37.2959C34.7956 37.2959 35.5587 36.9798 36.1213 36.4172C36.6839 35.8546 37 35.0915 37 34.2959C37 33.5002 36.6839 32.7372 36.1213 32.1746C35.5587 31.612 34.7956 31.2959 34 31.2959H22C21.2044 31.2959 20.4413 31.612 19.8787 32.1746C19.3161 32.7372 19 33.5002 19 34.2959C19 35.0915 19.3161 35.8546 19.8787 36.4172C20.4413 36.9798 21.2044 37.2959 22 37.2959C22.7956 37.2959 23.5587 36.9798 24.1213 36.4172C24.6839 35.8546 25 35.0915 25 34.2959V22.2959C25 21.5002 24.6839 20.7372 24.1213 20.1746C23.5587 19.612 22.7956 19.2959 22 19.2959C21.2044 19.2959 20.4413 19.612 19.8787 20.1746C19.3161 20.7372 19 21.5002 19 22.2959C19 23.0915 19.3161 23.8546 19.8787 24.4172C20.4413 24.9798 21.2044 25.2959 22 25.2959H34C34.7956 25.2959 35.5587 24.9798 36.1213 24.4172C36.6839 23.8546 37 23.0915 37 22.2959C37 21.5002 36.6839 20.7372 36.1213 20.1746C35.5587 19.612 34.7956 19.2959 34 19.2959Z" stroke="#5A78AD" stroke-width="2" stroke-linecap="round" stroke-linejoin="round"/>
</svg>
