<svg width="56" height="57" viewBox="0 0 56 57" fill="none" xmlns="http://www.w3.org/2000/svg">
<rect x="4" y="4.2959" width="48" height="48" rx="24" fill="#EBF2FF"/>
<rect x="4" y="4.2959" width="48" height="48" rx="24" stroke="#F7FAFF" stroke-width="8"/>
<path d="M22.5898 35.1289C23.6944 35.1289 24.5898 34.2335 24.5898 33.1289C24.5898 32.0243 23.6944 31.1289 22.5898 31.1289C21.4853 31.1289 20.5898 32.0243 20.5898 33.1289C20.5898 34.2335 21.4853 35.1289 22.5898 35.1289Z" stroke="#5A78AD" stroke-width="2" stroke-linecap="round" stroke-linejoin="round"/>
<path d="M32.5898 35.1289C33.6944 35.1289 34.5898 34.2335 34.5898 33.1289C34.5898 32.0243 33.6944 31.1289 32.5898 31.1289C31.4853 31.1289 30.5898 32.0243 30.5898 33.1289C30.5898 34.2335 31.4853 35.1289 32.5898 35.1289Z" stroke="#5A78AD" stroke-width="2" stroke-linecap="round" stroke-linejoin="round"/>
<path d="M20.5898 33.1289H18.5898V29.1289M17.5898 21.1289H28.5898V33.1289M24.5898 33.1289H30.5898M34.5898 33.1289H36.5898V27.1289M36.5898 27.1289H28.5898M36.5898 27.1289L33.5898 22.1289H28.5898" stroke="#5A78AD" stroke-width="2" stroke-linecap="round" stroke-linejoin="round"/>
<path d="M18.5898 25.1289H22.5898" stroke="#5A78AD" stroke-width="2" stroke-linecap="round" stroke-linejoin="round"/>
</svg>
