<svg width="57" height="57" viewBox="0 0 57 57" fill="none" xmlns="http://www.w3.org/2000/svg">
<rect x="4.55859" y="4.2959" width="48" height="48" rx="24" fill="#EBF2FF"/>
<rect x="4.55859" y="4.2959" width="48" height="48" rx="24" stroke="#F7FAFF" stroke-width="8"/>
<path d="M19.75 18C19.75 17.5858 19.4142 17.25 19 17.25C18.5858 17.25 18.25 17.5858 18.25 18V28.0574C18.25 30.3658 18.25 32.1748 18.4397 33.5863C18.634 35.031 19.0393 36.1711 19.9341 37.0659C20.8289 37.9607 21.969 38.366 23.4137 38.5603C24.8252 38.75 26.6342 38.75 28.9426 38.75H39C39.4142 38.75 39.75 38.4142 39.75 38C39.75 37.5858 39.4142 37.25 39 37.25H29C26.6218 37.25 24.9136 37.2484 23.6136 37.0736C22.3352 36.9018 21.5645 36.5749 20.9948 36.0052C20.4251 35.4355 20.0982 34.6648 19.9264 33.3864C19.7516 32.0864 19.75 30.3782 19.75 28V18Z" fill="#5A78AD"/>
<path d="M36.5875 23.4664C36.8451 23.142 36.791 22.6703 36.4666 22.4127C36.1422 22.1551 35.6704 22.2092 35.4128 22.5336L32.2948 26.46C32.0496 26.7688 31.8887 26.9708 31.7561 27.1162C31.6265 27.2585 31.5657 27.2989 31.538 27.3137C31.3272 27.4264 31.0754 27.4319 30.8599 27.3285C30.8316 27.3149 30.7691 27.2772 30.6333 27.1407C30.4946 27.0011 30.3251 26.8063 30.0666 26.5085L30.0505 26.4898C29.8126 26.2157 29.6098 25.9819 29.4308 25.8018C29.2448 25.6147 29.0414 25.4401 28.7894 25.3192C28.143 25.009 27.3875 25.0254 26.7552 25.3634C26.5087 25.4952 26.3131 25.6785 26.1354 25.8735C25.9644 26.0612 25.7719 26.3036 25.5462 26.5878L22.4127 30.5336C22.1551 30.8579 22.2092 31.3297 22.5336 31.5873C22.8579 31.8449 23.3297 31.7908 23.5873 31.4664L26.7055 27.54C26.9508 27.2311 27.1116 27.0292 27.2442 26.8837C27.3738 26.7414 27.4347 26.7011 27.4623 26.6863C27.6731 26.5736 27.925 26.5681 28.1404 26.6715C28.1687 26.6851 28.2313 26.7228 28.367 26.8593C28.5057 26.9989 28.6752 27.1936 28.9337 27.4915L28.9498 27.5101C29.1877 27.7843 29.3905 28.0181 29.5695 28.1981C29.7555 28.3853 29.9589 28.5599 30.2109 28.6808C30.8573 28.991 31.6129 28.9746 32.2452 28.6365C32.4916 28.5048 32.6873 28.3215 32.865 28.1264C33.0359 27.9388 33.2284 27.6964 33.4541 27.4121L36.5875 23.4664Z" fill="#5A78AD"/>
</svg>
