<svg width="57" height="57" viewBox="0 0 57 57" fill="none" xmlns="http://www.w3.org/2000/svg">
<rect x="4.11816" y="4.2959" width="48" height="48" rx="24" fill="#EBF2FF"/>
<rect x="4.11816" y="4.2959" width="48" height="48" rx="24" stroke="#F7FAFF" stroke-width="8"/>
<path d="M19.9123 28.325C20.4494 25.6392 20.718 24.2963 21.6055 23.4313C21.7695 23.2715 21.947 23.126 22.1359 22.9965C23.1581 22.2959 24.5276 22.2959 27.2666 22.2959H28.9696C31.7086 22.2959 33.0781 22.2959 34.1003 22.9965C34.2892 23.126 34.4667 23.2715 34.6307 23.4313C35.5182 24.2963 35.7868 25.6392 36.3239 28.325C37.0951 32.181 37.4807 34.109 36.5931 35.4752C36.4323 35.7226 36.2448 35.9514 36.0337 36.1575C34.8681 37.2959 32.9019 37.2959 28.9696 37.2959H27.2666C23.3343 37.2959 21.3681 37.2959 20.2025 36.1575C19.9915 35.9514 19.8039 35.7226 19.6431 35.4752C18.7555 34.109 19.1411 32.181 19.9123 28.325Z" stroke="#5A78AD" stroke-width="1.5"/>
<path d="M25.1182 22.2959V21.2959C25.1182 19.639 26.4613 18.2959 28.1182 18.2959C29.775 18.2959 31.1182 19.639 31.1182 21.2959V22.2959" stroke="#5A78AD" stroke-width="1.5" stroke-linecap="round"/>
<path d="M25.2891 31.2959C25.7009 32.4611 26.8121 33.2959 28.1184 33.2959C29.4246 33.2959 30.5358 32.4611 30.9477 31.2959" stroke="#5A78AD" stroke-width="1.5" stroke-linecap="round"/>
</svg>
