<svg width="57" height="57" viewBox="0 0 57 57" fill="none" xmlns="http://www.w3.org/2000/svg">
<rect x="4.55859" y="4.2959" width="48" height="48" rx="24" fill="#EBF2FF"/>
<rect x="4.55859" y="4.2959" width="48" height="48" rx="24" stroke="#F7FAFF" stroke-width="8"/>
<path fill-rule="evenodd" clip-rule="evenodd" d="M29 38C24.7574 38 22.636 38 21.318 36.5355C20 35.0711 20 32.714 20 28C20 23.286 20 20.9289 21.318 19.4645C22.636 18 24.7574 18 29 18C33.2426 18 35.364 18 36.682 19.4645C38 20.9289 38 23.286 38 28C38 32.714 38 35.0711 36.682 36.5355C35.364 38 33.2426 38 29 38ZM32 22H26C25.535 22 25.3025 22 25.1118 22.0511C24.5941 22.1898 24.1898 22.5941 24.0511 23.1118C24 23.3025 24 23.535 24 24C24 24.465 24 24.6975 24.0511 24.8882C24.1898 25.4059 24.5941 25.8102 25.1118 25.9489C25.3025 26 25.535 26 26 26H32C32.465 26 32.6975 26 32.8882 25.9489C33.4059 25.8102 33.8102 25.4059 33.9489 24.8882C34 24.6975 34 24.465 34 24C34 23.535 34 23.3025 33.9489 23.1118C33.8102 22.5941 33.4059 22.1898 32.8882 22.0511C32.6975 22 32.465 22 32 22ZM26 29C26 29.5523 25.5523 30 25 30C24.4477 30 24 29.5523 24 29C24 28.4477 24.4477 28 25 28C25.5523 28 26 28.4477 26 29ZM29 30C29.5523 30 30 29.5523 30 29C30 28.4477 29.5523 28 29 28C28.4477 28 28 28.4477 28 29C28 29.5523 28.4477 30 29 30ZM34 29C34 29.5523 33.5523 30 33 30C32.4477 30 32 29.5523 32 29C32 28.4477 32.4477 28 33 28C33.5523 28 34 28.4477 34 29ZM33 34C33.5523 34 34 33.5523 34 33C34 32.4477 33.5523 32 33 32C32.4477 32 32 32.4477 32 33C32 33.5523 32.4477 34 33 34ZM30 33C30 33.5523 29.5523 34 29 34C28.4477 34 28 33.5523 28 33C28 32.4477 28.4477 32 29 32C29.5523 32 30 32.4477 30 33ZM25 34C25.5523 34 26 33.5523 26 33C26 32.4477 25.5523 32 25 32C24.4477 32 24 32.4477 24 33C24 33.5523 24.4477 34 25 34Z" fill="#5A78AD"/>
</svg>
