<svg width="57" height="57" viewBox="0 0 57 57" fill="none" xmlns="http://www.w3.org/2000/svg">
<rect x="4.55859" y="4.2959" width="48" height="48" rx="24" fill="#EBF2FF"/>
<rect x="4.55859" y="4.2959" width="48" height="48" rx="24" stroke="#F7FAFF" stroke-width="8"/>
<path fill-rule="evenodd" clip-rule="evenodd" d="M28.8945 18.7344C27.7807 18.7344 26.7663 19.3351 24.7376 20.5365L24.0515 20.9428C22.0227 22.1442 21.0084 22.7449 20.4515 23.7344C19.8945 24.7238 19.8945 25.9252 19.8945 28.328V29.1407C19.8945 31.5435 19.8945 32.7449 20.4515 33.7344C21.0084 34.7238 22.0227 35.3245 24.0515 36.5259L24.7376 36.9323C26.7663 38.1337 27.7807 38.7344 28.8945 38.7344C30.0084 38.7344 31.0227 38.1337 33.0515 36.9323L33.7376 36.5259C35.7663 35.3245 36.7807 34.7238 37.3376 33.7344C37.8945 32.7449 37.8945 31.5435 37.8945 29.1407V28.328C37.8945 25.9252 37.8945 24.7238 37.3376 23.7344C36.7807 22.7449 35.7663 22.1442 33.7376 20.9428L33.0515 20.5365C31.0227 19.3351 30.0084 18.7344 28.8945 18.7344ZM25.1445 28.7344C25.1445 26.6633 26.8235 24.9844 28.8945 24.9844C30.9656 24.9844 32.6445 26.6633 32.6445 28.7344C32.6445 30.8054 30.9656 32.4844 28.8945 32.4844C26.8235 32.4844 25.1445 30.8054 25.1445 28.7344Z" fill="#5A78AD"/>
</svg>
