<svg width="25" height="25" viewBox="0 0 25 25" fill="none" xmlns="http://www.w3.org/2000/svg">
<path d="M19.697 3.91992H5.69702C4.28281 3.91992 3.5757 3.91992 3.13636 4.33212C2.69702 4.74432 2.69702 5.40774 2.69702 6.73458V7.4244C2.69702 8.46224 2.69702 8.98116 2.95662 9.41134C3.21622 9.84152 3.69049 10.1085 4.63904 10.6425L7.55207 12.2823C8.18848 12.6406 8.50669 12.8197 8.73453 13.0175C9.20901 13.4294 9.5011 13.9134 9.63346 14.5071C9.69702 14.7922 9.69702 15.1257 9.69702 15.7929L9.69702 18.4623C9.69702 19.3719 9.69702 19.8267 9.94895 20.1812C10.2009 20.5357 10.6483 20.7107 11.5432 21.0605C13.4218 21.7949 14.3611 22.1621 15.0291 21.7443C15.697 21.3265 15.697 20.3718 15.697 18.4623V15.7929C15.697 15.1257 15.697 14.7922 15.7606 14.5071C15.8929 13.9134 16.185 13.4294 16.6595 13.0175C16.8874 12.8197 17.2056 12.6406 17.842 12.2823L20.755 10.6425C21.7035 10.1085 22.1778 9.84152 22.4374 9.41134C22.697 8.98116 22.697 8.46224 22.697 7.4244V6.73458C22.697 5.40774 22.697 4.74432 22.2577 4.33212C21.8183 3.91992 21.1112 3.91992 19.697 3.91992Z" fill="white"/>
</svg>
