<svg width="21" height="19" viewBox="0 0 21 19" fill="none" xmlns="http://www.w3.org/2000/svg">
<path d="M17.6973 0.919922H3.69727C2.28305 0.919922 1.57595 0.919922 1.13661 1.33212C0.697266 1.74432 0.697266 2.40774 0.697266 3.73458V4.4244C0.697266 5.46224 0.697266 5.98116 0.956866 6.41134C1.21647 6.84152 1.69074 7.1085 2.63928 7.64247L5.55231 9.2823C6.18873 9.64056 6.50694 9.8197 6.73478 10.0175C7.20925 10.4294 7.50134 10.9134 7.63371 11.5071C7.69727 11.7922 7.69727 12.1257 7.69727 12.7929L7.69727 15.4623C7.69727 16.3719 7.69727 16.8267 7.94919 17.1812C8.20111 17.5357 8.64855 17.7107 9.54342 18.0605C11.4221 18.7949 12.3614 19.1621 13.0293 18.7443C13.6973 18.3265 13.6973 17.3718 13.6973 15.4623V12.7929C13.6973 12.1257 13.6973 11.7922 13.7608 11.5071C13.8932 10.9134 14.1853 10.4294 14.6598 10.0175C14.8876 9.81969 15.2058 9.64056 15.8422 9.2823L18.7552 7.64247C19.7038 7.1085 20.1781 6.84152 20.4377 6.41134C20.6973 5.98116 20.6973 5.46224 20.6973 4.4244V3.73458C20.6973 2.40774 20.6973 1.74432 20.2579 1.33212C19.8186 0.919922 19.1115 0.919922 17.6973 0.919922Z" fill="#5A78AD"/>
</svg>
