<svg width="21" height="21" viewBox="0 0 21 21" fill="none" xmlns="http://www.w3.org/2000/svg">
<path fill-rule="evenodd" clip-rule="evenodd" d="M10.3477 0.438477C6.57642 0.438477 4.6908 0.438477 3.51923 1.61005C2.45614 2.67314 2.3577 4.32417 2.34859 7.43848H1.34766C0.795372 7.43848 0.347656 7.88619 0.347656 8.43848V9.43848C0.347656 9.75323 0.49585 10.0496 0.747656 10.2385L2.34766 11.4385C2.35677 14.5528 2.45614 16.2038 3.51923 17.2669C3.76141 17.5091 4.0341 17.7012 4.34766 17.8536V19.4384C4.34766 19.9907 4.79537 20.4384 5.34766 20.4384H6.84766C7.39994 20.4384 7.84766 19.9907 7.84766 19.4384V18.42C8.57472 18.4385 9.40189 18.4385 10.3477 18.4385C11.2934 18.4385 12.1206 18.4385 12.8477 18.42V19.4384C12.8477 19.9907 13.2954 20.4384 13.8477 20.4384H15.3477C15.8999 20.4384 16.3477 19.9907 16.3477 19.4384V17.8536C16.6612 17.7012 16.9339 17.5091 17.1761 17.2669C18.2392 16.2038 18.3385 14.5528 18.3477 11.4385L19.9477 10.2385C20.1995 10.0496 20.3477 9.75323 20.3477 9.43848V8.43848C20.3477 7.88619 19.8999 7.43848 19.3477 7.43848H18.3467C18.3376 4.32417 18.2392 2.67314 17.1761 1.61005C16.0045 0.438477 14.1189 0.438477 10.3477 0.438477ZM3.84766 7.93848C3.84766 9.35269 3.84766 10.0598 4.287 10.4991C4.72634 10.9385 5.43344 10.9385 6.84766 10.9385H10.3477H13.8477C15.2619 10.9385 15.969 10.9385 16.4083 10.4991C16.8477 10.0598 16.8477 9.35269 16.8477 7.93848V5.43848C16.8477 4.02426 16.8477 3.31716 16.4083 2.87782C15.969 2.43848 15.2619 2.43848 13.8477 2.43848H10.3477H6.84766C5.43344 2.43848 4.72634 2.43848 4.287 2.87782C3.84766 3.31716 3.84766 4.02426 3.84766 5.43848V7.93848ZM4.59766 14.4385C4.59766 14.0243 4.93344 13.6885 5.34766 13.6885H6.84766C7.26187 13.6885 7.59766 14.0243 7.59766 14.4385C7.59766 14.8527 7.26187 15.1885 6.84766 15.1885H5.34766C4.93344 15.1885 4.59766 14.8527 4.59766 14.4385ZM16.0977 14.4385C16.0977 14.0243 15.7619 13.6885 15.3477 13.6885H13.8477C13.4334 13.6885 13.0977 14.0243 13.0977 14.4385C13.0977 14.8527 13.4334 15.1885 13.8477 15.1885H15.3477C15.7619 15.1885 16.0977 14.8527 16.0977 14.4385Z" fill="#5A78AD"/>
</svg>
