<svg width="25" height="25" viewBox="0 0 25 25" fill="none" xmlns="http://www.w3.org/2000/svg">
<path fill-rule="evenodd" clip-rule="evenodd" d="M12.3477 2.43848C8.57642 2.43848 6.6908 2.43848 5.51923 3.61005C4.45614 4.67314 4.3577 6.32417 4.34859 9.43848H3.34766C2.79537 9.43848 2.34766 9.88619 2.34766 10.4385V11.4385C2.34766 11.7532 2.49585 12.0496 2.74766 12.2385L4.34766 13.4385C4.35677 16.5528 4.45614 18.2038 5.51923 19.2669C5.76141 19.5091 6.0341 19.7012 6.34766 19.8536V21.4384C6.34766 21.9907 6.79537 22.4384 7.34766 22.4384H8.84766C9.39994 22.4384 9.84766 21.9907 9.84766 21.4384V20.42C10.5747 20.4385 11.4019 20.4385 12.3477 20.4385C13.2934 20.4385 14.1206 20.4385 14.8477 20.42V21.4384C14.8477 21.9907 15.2954 22.4384 15.8477 22.4384H17.3477C17.8999 22.4384 18.3477 21.9907 18.3477 21.4384V19.8536C18.6612 19.7012 18.9339 19.5091 19.1761 19.2669C20.2392 18.2038 20.3385 16.5528 20.3477 13.4385L21.9477 12.2385C22.1995 12.0496 22.3477 11.7532 22.3477 11.4385V10.4385C22.3477 9.88619 21.8999 9.43848 21.3477 9.43848H20.3467C20.3376 6.32417 20.2392 4.67314 19.1761 3.61005C18.0045 2.43848 16.1189 2.43848 12.3477 2.43848ZM5.84766 9.93848C5.84766 11.3527 5.84766 12.0598 6.287 12.4991C6.72634 12.9385 7.43344 12.9385 8.84766 12.9385H12.3477H15.8477C17.2619 12.9385 17.969 12.9385 18.4083 12.4991C18.8477 12.0598 18.8477 11.3527 18.8477 9.93848V7.43848C18.8477 6.02426 18.8477 5.31716 18.4083 4.87782C17.969 4.43848 17.2619 4.43848 15.8477 4.43848H12.3477H8.84766C7.43344 4.43848 6.72634 4.43848 6.287 4.87782C5.84766 5.31716 5.84766 6.02426 5.84766 7.43848V9.93848ZM6.59766 16.4385C6.59766 16.0243 6.93344 15.6885 7.34766 15.6885H8.84766C9.26187 15.6885 9.59766 16.0243 9.59766 16.4385C9.59766 16.8527 9.26187 17.1885 8.84766 17.1885H7.34766C6.93344 17.1885 6.59766 16.8527 6.59766 16.4385ZM18.0977 16.4385C18.0977 16.0243 17.7619 15.6885 17.3477 15.6885H15.8477C15.4334 15.6885 15.0977 16.0243 15.0977 16.4385C15.0977 16.8527 15.4334 17.1885 15.8477 17.1885H17.3477C17.7619 17.1885 18.0977 16.8527 18.0977 16.4385Z" fill="white"/>
</svg>
