<svg width="25" height="25" viewBox="0 0 25 25" fill="none" xmlns="http://www.w3.org/2000/svg">
<path fill-rule="evenodd" clip-rule="evenodd" d="M2.21997 12.1699C2.6035 6.99737 6.92171 2.91992 12.1923 2.91992C11.3614 2.91992 10.6216 3.28413 10.0131 3.84105C9.40755 4.39517 8.89585 5.1687 8.48197 6.08307C8.06565 7.00284 7.74227 8.0786 7.52339 9.24604C7.34794 10.1819 7.24117 11.1684 7.20558 12.1699H2.21997ZM2.21997 13.6699H7.20558C7.24117 14.6714 7.34794 15.658 7.52339 16.5938C7.74227 17.7612 8.06565 18.837 8.48197 19.7568C8.89584 20.6711 9.40755 21.4447 10.0131 21.9988C10.6216 22.5557 11.3614 22.9199 12.1923 22.9199C6.92171 22.9199 2.6035 18.8425 2.21997 13.6699Z" fill="white"/>
<path d="M12.1923 4.31527C11.9173 4.31527 11.562 4.43229 11.1489 4.81034C10.7327 5.19118 10.3161 5.78807 9.94799 6.60129C9.58233 7.40913 9.28543 8.38433 9.08111 9.47412C8.9202 10.3323 8.82038 11.2421 8.78535 12.1699H15.5992C15.5642 11.2421 15.4643 10.3323 15.3034 9.47412C15.0991 8.38433 14.8022 7.40913 14.4366 6.6013C14.0685 5.78807 13.6518 5.19118 13.2357 4.81034C12.8226 4.43229 12.4673 4.31527 12.1923 4.31527Z" fill="white"/>
<path d="M9.08111 16.3657C9.28543 17.4555 9.58233 18.4307 9.94799 19.2386C10.3161 20.0518 10.7327 20.6487 11.1489 21.0295C11.562 21.4076 11.9173 21.5246 12.1923 21.5246C12.4673 21.5246 12.8226 21.4076 13.2357 21.0295C13.6518 20.6487 14.0685 20.0518 14.4366 19.2386C14.8022 18.4307 15.0991 17.4555 15.3034 16.3657C15.4643 15.5075 15.5642 14.5977 15.5992 13.6699H8.78535C8.82038 14.5977 8.9202 15.5075 9.08111 16.3657Z" fill="white"/>
<path d="M12.1923 2.91992C13.0231 2.91992 13.7629 3.28413 14.3715 3.84105C14.977 4.39518 15.4887 5.1687 15.9026 6.08308C16.3189 7.00284 16.6423 8.0786 16.8611 9.24604C17.0366 10.1819 17.1434 11.1684 17.179 12.1699H22.1646C21.781 6.99737 17.4628 2.91992 12.1923 2.91992Z" fill="white"/>
<path d="M16.8611 16.5938C16.6423 17.7612 16.3189 18.837 15.9026 19.7568C15.4887 20.6711 14.977 21.4447 14.3715 21.9988C13.7629 22.5557 13.0231 22.9199 12.1923 22.9199C17.4628 22.9199 21.781 18.8425 22.1646 13.6699H17.179C17.1434 14.6714 17.0366 15.658 16.8611 16.5938Z" fill="white"/>
</svg>
