<svg width="21" height="21" viewBox="0 0 21 21" fill="none" xmlns="http://www.w3.org/2000/svg">
<path fill-rule="evenodd" clip-rule="evenodd" d="M0.219238 10.1699C0.602764 4.99737 4.92098 0.919922 10.1915 0.919922C9.36068 0.919922 8.62091 1.28413 8.01234 1.84105C7.40682 2.39517 6.89511 3.1687 6.48124 4.08307C6.06492 5.00284 5.74154 6.0786 5.52266 7.24604C5.34721 8.18186 5.24043 9.16844 5.20484 10.1699H0.219238ZM0.219238 11.6699H5.20484C5.24043 12.6714 5.34721 13.658 5.52266 14.5938C5.74154 15.7612 6.06492 16.837 6.48124 17.7568C6.89511 18.6711 7.40682 19.4447 8.01234 19.9988C8.62091 20.5557 9.36068 20.9199 10.1915 20.9199C4.92098 20.9199 0.602764 16.8425 0.219238 11.6699Z" fill="#5A78AD"/>
<path d="M10.1915 2.31527C9.91653 2.31527 9.56126 2.43229 9.14814 2.81034C8.73197 3.19118 8.31534 3.78807 7.94725 4.60129C7.5816 5.40913 7.28469 6.38433 7.08037 7.47412C6.91947 8.33234 6.81965 9.24211 6.78462 10.1699H13.5985C13.5634 9.24211 13.4636 8.33234 13.3027 7.47412C13.0984 6.38433 12.8015 5.40913 12.4358 4.6013C12.0677 3.78807 11.6511 3.19118 11.2349 2.81034C10.8218 2.43229 10.4665 2.31527 10.1915 2.31527Z" fill="#5A78AD"/>
<path d="M7.08037 14.3657C7.28469 15.4555 7.5816 16.4307 7.94725 17.2386C8.31534 18.0518 8.73197 18.6487 9.14814 19.0295C9.56126 19.4076 9.91653 19.5246 10.1915 19.5246C10.4665 19.5246 10.8218 19.4076 11.2349 19.0295C11.6511 18.6487 12.0677 18.0518 12.4358 17.2386C12.8015 16.4307 13.0984 15.4555 13.3027 14.3657C13.4636 13.5075 13.5634 12.5977 13.5985 11.6699H6.78462C6.81965 12.5977 6.91947 13.5075 7.08037 14.3657Z" fill="#5A78AD"/>
<path d="M10.1915 0.919922C11.0224 0.919922 11.7622 1.28413 12.3707 1.84105C12.9763 2.39518 13.488 3.1687 13.9018 4.08308C14.3182 5.00284 14.6415 6.0786 14.8604 7.24604C15.0359 8.18187 15.1426 9.16844 15.1782 10.1699H20.1638C19.7803 4.99737 15.4621 0.919922 10.1915 0.919922Z" fill="#5A78AD"/>
<path d="M14.8604 14.5938C14.6415 15.7612 14.3182 16.837 13.9018 17.7568C13.488 18.6711 12.9763 19.4447 12.3707 19.9988C11.7622 20.5557 11.0224 20.9199 10.1915 20.9199C15.4621 20.9199 19.7803 16.8425 20.1638 11.6699H15.1782C15.1426 12.6714 15.0359 13.658 14.8604 14.5938Z" fill="#5A78AD"/>
</svg>
