<svg width="20" height="20" viewBox="0 0 20 20" fill="none" xmlns="http://www.w3.org/2000/svg">
<path fill-rule="evenodd" clip-rule="evenodd" d="M1.97968 0.731136C1.58891 0.593751 1.16076 0.799157 1.02337 1.18992C0.885987 1.58069 1.09139 2.00884 1.48216 2.14623L1.74337 2.23806C2.41098 2.47278 2.84973 2.62833 3.17257 2.78674C3.4758 2.93552 3.60947 3.05595 3.69753 3.18481C3.78779 3.3169 3.85749 3.49832 3.89682 3.86167C3.93798 4.24188 3.939 4.73709 3.939 5.47704L3.939 8.07872C3.939 11.0203 4.00223 11.9911 4.86864 12.9049C5.73504 13.8187 7.12949 13.8187 9.91839 13.8187H15.2213C16.7823 13.8187 17.5628 13.8187 18.1145 13.3691C18.6663 12.9195 18.8238 12.1551 19.1389 10.6262L19.6387 8.20147C19.9858 6.46241 20.1594 5.59289 19.7154 5.0158C19.2715 4.43872 17.7547 4.43872 16.0697 4.43872H5.43154C5.42485 4.16839 5.41216 3.92245 5.38811 3.70025C5.33438 3.20387 5.21796 2.75115 4.93598 2.33851C4.6518 1.92265 4.27395 1.65631 3.83332 1.44011C3.42123 1.23791 2.8976 1.05383 2.28107 0.837101L1.97968 0.731136ZM14.4565 6.89562C14.7564 7.18128 14.768 7.65601 14.4823 7.95596L11.6252 10.956C11.4836 11.1046 11.2873 11.1887 11.0821 11.1887C10.8768 11.1887 10.6805 11.1046 10.539 10.956L9.39611 9.75596C9.11044 9.45601 9.12202 8.98128 9.42197 8.69562C9.72192 8.40995 10.1966 8.42153 10.4823 8.72148L11.0821 9.35122L13.3961 6.92148C13.6818 6.62153 14.1565 6.60995 14.4565 6.89562Z" fill="white"/>
<path d="M6.43921 16.4387C7.26764 16.4387 7.93921 17.1103 7.93921 17.9387C7.93921 18.7671 7.26764 19.4387 6.43921 19.4387C5.61078 19.4387 4.93921 18.7671 4.93921 17.9387C4.93921 17.1103 5.61078 16.4387 6.43921 16.4387Z" fill="white"/>
<path d="M15.4392 16.4388C16.2676 16.4388 16.9392 17.1104 16.9392 17.9388C16.9392 18.7672 16.2676 19.4388 15.4392 19.4388C14.6108 19.4388 13.9392 18.7672 13.9392 17.9388C13.9392 17.1104 14.6108 16.4388 15.4392 16.4388Z" fill="white"/>
</svg>
