<svg width="20" height="20" viewBox="0 0 20 20" fill="none" xmlns="http://www.w3.org/2000/svg">
<path fill-rule="evenodd" clip-rule="evenodd" d="M1.97894 0.731136C1.58818 0.593751 1.16003 0.799157 1.02264 1.18992C0.885255 1.58069 1.09066 2.00884 1.48143 2.14623L1.74264 2.23806C2.41024 2.47278 2.849 2.62833 3.17184 2.78674C3.47507 2.93552 3.60874 3.05595 3.6968 3.18481C3.78706 3.3169 3.85676 3.49832 3.89609 3.86167C3.93724 4.24188 3.93826 4.73709 3.93826 5.47704L3.93827 8.07872C3.93827 11.0203 4.0015 11.9911 4.8679 12.9049C5.7343 13.8187 7.12876 13.8187 9.91766 13.8187H15.2205C16.7816 13.8187 17.5621 13.8187 18.1138 13.3691C18.6655 12.9195 18.8231 12.1551 19.1382 10.6262L19.638 8.20147C19.9851 6.46241 20.1586 5.59289 19.7147 5.0158C19.2707 4.43872 17.754 4.43872 16.069 4.43872H5.43081C5.42412 4.16839 5.41143 3.92245 5.38738 3.70025C5.33365 3.20387 5.21723 2.75115 4.93525 2.33851C4.65107 1.92265 4.27322 1.65631 3.83259 1.44011C3.4205 1.23791 2.89687 1.05383 2.28034 0.837101L1.97894 0.731136ZM14.4557 6.89562C14.7557 7.18128 14.7672 7.65601 14.4816 7.95596L11.6244 10.956C11.4829 11.1046 11.2866 11.1887 11.0813 11.1887C10.8761 11.1887 10.6798 11.1046 10.5382 10.956L9.39537 9.75596C9.10971 9.45601 9.12129 8.98128 9.42124 8.69562C9.72118 8.40995 10.1959 8.42153 10.4816 8.72148L11.0813 9.35122L13.3954 6.92148C13.681 6.62153 14.1558 6.60995 14.4557 6.89562Z" fill="#5A78AD"/>
<path d="M6.43848 16.4387C7.2669 16.4387 7.93848 17.1103 7.93848 17.9387C7.93848 18.7671 7.2669 19.4387 6.43848 19.4387C5.61005 19.4387 4.93848 18.7671 4.93848 17.9387C4.93848 17.1103 5.61005 16.4387 6.43848 16.4387Z" fill="#5A78AD"/>
<path d="M15.4385 16.4388C16.2669 16.4388 16.9385 17.1104 16.9385 17.9388C16.9385 18.7672 16.2669 19.4388 15.4385 19.4388C14.61 19.4388 13.9385 18.7672 13.9385 17.9388C13.9385 17.1104 14.61 16.4388 15.4385 16.4388Z" fill="#5A78AD"/>
</svg>
