<svg width="20" height="21" viewBox="0 0 20 21" fill="none" xmlns="http://www.w3.org/2000/svg">
<path fill-rule="evenodd" clip-rule="evenodd" d="M0.00146484 5.23766C0.00146484 2.67829 2.07624 0.603516 4.63561 0.603516C7.19498 0.603516 9.26976 2.67829 9.26976 5.23766C9.26976 7.79703 7.19498 9.87181 4.63561 9.87181C2.07624 9.87181 0.00146484 7.79703 0.00146484 5.23766Z" fill="#5A78AD"/>
<path fill-rule="evenodd" clip-rule="evenodd" d="M10.7332 15.9694C10.7332 13.41 12.808 11.3352 15.3673 11.3352C17.9267 11.3352 20.0015 13.41 20.0015 15.9694C20.0015 18.5287 17.9267 20.6035 15.3673 20.6035C12.808 20.6035 10.7332 18.5287 10.7332 15.9694Z" fill="#5A78AD"/>
<path d="M0.00146484 16.1035C0.00146484 13.9822 0.00146484 12.9215 0.660475 12.2625C1.31948 11.6035 2.38014 11.6035 4.50146 11.6035C6.62279 11.6035 7.68344 11.6035 8.34245 12.2625C9.00146 12.9215 9.00146 13.9822 9.00146 16.1035C9.00146 18.2248 9.00146 19.2855 8.34245 19.9445C7.68344 20.6035 6.62279 20.6035 4.50146 20.6035C2.38014 20.6035 1.31948 20.6035 0.660475 19.9445C0.00146484 19.2855 0.00146484 18.2248 0.00146484 16.1035Z" fill="#5A78AD"/>
<path d="M11.0015 5.10352C11.0015 2.9822 11.0015 1.92154 11.6605 1.26253C12.3195 0.603516 13.3801 0.603516 15.5015 0.603516C17.6228 0.603516 18.6834 0.603516 19.3425 1.26253C20.0015 1.92154 20.0015 2.9822 20.0015 5.10352C20.0015 7.22484 20.0015 8.2855 19.3425 8.94451C18.6834 9.60352 17.6228 9.60352 15.5015 9.60352C13.3801 9.60352 12.3195 9.60352 11.6605 8.94451C11.0015 8.2855 11.0015 7.22484 11.0015 5.10352Z" fill="#5A78AD"/>
</svg>
