<svg width="24" height="25" viewBox="0 0 24 25" fill="none" xmlns="http://www.w3.org/2000/svg">
<path fill-rule="evenodd" clip-rule="evenodd" d="M2.00171 7.23766C2.00171 4.67829 4.07649 2.60352 6.63586 2.60352C9.19522 2.60352 11.27 4.67829 11.27 7.23766C11.27 9.79703 9.19522 11.8718 6.63586 11.8718C4.07649 11.8718 2.00171 9.79703 2.00171 7.23766Z" fill="white"/>
<path fill-rule="evenodd" clip-rule="evenodd" d="M12.7334 17.9694C12.7334 15.41 14.8082 13.3352 17.3676 13.3352C19.9269 13.3352 22.0017 15.41 22.0017 17.9694C22.0017 20.5287 19.9269 22.6035 17.3676 22.6035C14.8082 22.6035 12.7334 20.5287 12.7334 17.9694Z" fill="white"/>
<path d="M2.00171 18.1035C2.00171 15.9822 2.00171 14.9215 2.66072 14.2625C3.31973 13.6035 4.38039 13.6035 6.50171 13.6035C8.62303 13.6035 9.68369 13.6035 10.3427 14.2625C11.0017 14.9215 11.0017 15.9822 11.0017 18.1035C11.0017 20.2248 11.0017 21.2855 10.3427 21.9445C9.68369 22.6035 8.62303 22.6035 6.50171 22.6035C4.38039 22.6035 3.31973 22.6035 2.66072 21.9445C2.00171 21.2855 2.00171 20.2248 2.00171 18.1035Z" fill="white"/>
<path d="M13.0017 7.10352C13.0017 4.9822 13.0017 3.92154 13.6607 3.26253C14.3197 2.60352 15.3804 2.60352 17.5017 2.60352C19.623 2.60352 20.6837 2.60352 21.3427 3.26253C22.0017 3.92154 22.0017 4.9822 22.0017 7.10352C22.0017 9.22484 22.0017 10.2855 21.3427 10.9445C20.6837 11.6035 19.623 11.6035 17.5017 11.6035C15.3804 11.6035 14.3197 11.6035 13.6607 10.9445C13.0017 10.2855 13.0017 9.22484 13.0017 7.10352Z" fill="white"/>
</svg>
