<svg width="21" height="19" viewBox="0 0 21 19" fill="none" xmlns="http://www.w3.org/2000/svg">
<path d="M20.2012 3.91992C20.2012 5.57678 18.858 6.91992 17.2012 6.91992C15.5443 6.91992 14.2012 5.57678 14.2012 3.91992C14.2012 2.26307 15.5443 0.919922 17.2012 0.919922C18.858 0.919922 20.2012 2.26307 20.2012 3.91992Z" fill="white"/>
<path fill-rule="evenodd" clip-rule="evenodd" d="M12.2012 2.91992H8.20117C4.42994 2.91992 2.54432 2.91992 1.37274 4.09149C0.201172 5.26307 0.201172 7.14869 0.201172 10.9199C0.201172 14.6912 0.201172 16.5768 1.37274 17.7483C2.54432 18.9199 4.42994 18.9199 8.20117 18.9199H12.2012C15.9724 18.9199 17.858 18.9199 19.0296 17.7483C20.2012 16.5768 20.2012 14.6912 20.2012 10.9199C20.2012 9.46656 20.2012 8.29324 20.1341 7.33292C19.3464 8.01042 18.3216 8.41992 17.2012 8.41992C16.7225 8.41992 16.2613 8.34518 15.8285 8.20673L14.4848 9.32649C13.5985 10.0651 12.8801 10.6638 12.246 11.0716C11.5855 11.4964 10.9422 11.7648 10.2012 11.7648C9.46009 11.7648 8.81685 11.4964 8.15635 11.0716C7.52229 10.6638 6.80388 10.0652 5.91753 9.3265L3.72103 7.49609C3.40283 7.23092 3.35983 6.75799 3.62501 6.43978C3.89018 6.12158 4.3631 6.07858 4.68131 6.34376L6.84021 8.14284C7.77317 8.9203 8.4209 9.45834 8.96775 9.81005C9.49711 10.1505 9.8561 10.2648 10.2012 10.2648C10.5462 10.2648 10.9052 10.1505 11.4346 9.81005C11.9814 9.45834 12.6292 8.9203 13.5621 8.14283L14.4016 7.44328C13.3654 6.61886 12.7012 5.34696 12.7012 3.91992C12.7012 3.5763 12.7397 3.24167 12.8126 2.92012C12.6145 2.91992 12.4107 2.91992 12.2012 2.91992Z" fill="#5A78AD"/>
</svg>
