<svg width="25" height="25" viewBox="0 0 25 25" fill="none" xmlns="http://www.w3.org/2000/svg">
<path d="M22.2024 6.91992C22.2024 8.57678 20.8592 9.91992 19.2024 9.91992C17.5455 9.91992 16.2024 8.57678 16.2024 6.91992C16.2024 5.26307 17.5455 3.91992 19.2024 3.91992C20.8592 3.91992 22.2024 5.26307 22.2024 6.91992Z" fill="white"/>
<path fill-rule="evenodd" clip-rule="evenodd" d="M14.2024 5.91992H10.2024C6.43116 5.91992 4.54554 5.91992 3.37397 7.09149C2.20239 8.26307 2.20239 10.1487 2.20239 13.9199C2.20239 17.6912 2.20239 19.5768 3.37397 20.7483C4.54554 21.9199 6.43116 21.9199 10.2024 21.9199H14.2024C17.9736 21.9199 19.8592 21.9199 21.0308 20.7483C22.2024 19.5768 22.2024 17.6912 22.2024 13.9199C22.2024 12.4666 22.2024 11.2932 22.1353 10.3329C21.3477 11.0104 20.3228 11.4199 19.2024 11.4199C18.7237 11.4199 18.2625 11.3452 17.8298 11.2067L16.486 12.3265C15.5997 13.0651 14.8813 13.6638 14.2472 14.0716C13.5867 14.4964 12.9435 14.7648 12.2024 14.7648C11.4613 14.7648 10.8181 14.4964 10.1576 14.0716C9.52351 13.6638 8.8051 13.0652 7.91875 12.3265L5.72225 10.4961C5.40405 10.2309 5.36105 9.75799 5.62623 9.43978C5.8914 9.12158 6.36432 9.07858 6.68253 9.34376L8.84143 11.1428C9.77439 11.9203 10.4221 12.4583 10.969 12.8101C11.4983 13.1505 11.8573 13.2648 12.2024 13.2648C12.5475 13.2648 12.9065 13.1505 13.4358 12.8101C13.9827 12.4583 14.6304 11.9203 15.5634 11.1428L16.4028 10.4433C15.3666 9.61886 14.7024 8.34696 14.7024 6.91992C14.7024 6.5763 14.7409 6.24167 14.8139 5.92012C14.6157 5.91992 14.412 5.91992 14.2024 5.91992Z" fill="white"/>
</svg>
