<svg width="19" height="21" viewBox="0 0 19 21" fill="none" xmlns="http://www.w3.org/2000/svg">
<path fill-rule="evenodd" clip-rule="evenodd" d="M9.89453 0.438477C8.78069 0.438477 7.76633 1.03918 5.73761 2.24059L5.05145 2.64693C3.02273 3.84834 2.00837 4.44905 1.45145 5.43848C0.894531 6.42791 0.894531 7.62932 0.894531 10.0321V10.8448C0.894531 13.2476 0.894531 14.449 1.45145 15.4385C2.00837 16.4279 3.02273 17.0286 5.05145 18.23L5.73761 18.6364C7.76633 19.8378 8.78069 20.4385 9.89453 20.4385C11.0084 20.4385 12.0227 19.8378 14.0515 18.6364L14.7376 18.23C16.7663 17.0286 17.7807 16.4279 18.3376 15.4385C18.8945 14.449 18.8945 13.2476 18.8945 10.8448V10.0321C18.8945 7.62932 18.8945 6.42791 18.3376 5.43848C17.7807 4.44905 16.7663 3.84834 14.7376 2.64693L14.0515 2.24059C12.0227 1.03918 11.0084 0.438477 9.89453 0.438477ZM6.14453 10.4385C6.14453 8.36741 7.82346 6.68848 9.89453 6.68848C11.9656 6.68848 13.6445 8.36741 13.6445 10.4385C13.6445 12.5095 11.9656 14.1885 9.89453 14.1885C7.82346 14.1885 6.14453 12.5095 6.14453 10.4385Z" fill="#5A78AD"/>
</svg>
