<svg width="25" height="25" viewBox="0 0 25 25" fill="none" xmlns="http://www.w3.org/2000/svg">
<path fill-rule="evenodd" clip-rule="evenodd" d="M12.895 2.43848C11.7812 2.43848 10.7668 3.03918 8.7381 4.24059L8.05194 4.64693C6.02322 5.84834 5.00886 6.44905 4.45194 7.43848C3.89502 8.42791 3.89502 9.62932 3.89502 12.0321V12.8448C3.89502 15.2476 3.89502 16.449 4.45194 17.4385C5.00886 18.4279 6.02322 19.0286 8.05194 20.23L8.7381 20.6364C10.7668 21.8378 11.7812 22.4385 12.895 22.4385C14.0089 22.4385 15.0232 21.8378 17.0519 20.6364L17.7381 20.23C19.7668 19.0286 20.7812 18.4279 21.3381 17.4385C21.895 16.449 21.895 15.2476 21.895 12.8448V12.0321C21.895 9.62932 21.895 8.42791 21.3381 7.43848C20.7812 6.44905 19.7668 5.84834 17.7381 4.64693L17.0519 4.24059C15.0232 3.03918 14.0089 2.43848 12.895 2.43848ZM9.14502 12.4385C9.14502 10.3674 10.824 8.68848 12.895 8.68848C14.9661 8.68848 16.645 10.3674 16.645 12.4385C16.645 14.5095 14.9661 16.1885 12.895 16.1885C10.824 16.1885 9.14502 14.5095 9.14502 12.4385Z" fill="white"/>
</svg>
