<svg width="52" height="52" viewBox="0 0 52 52" fill="none" xmlns="http://www.w3.org/2000/svg">
<rect x="2" y="2" width="48" height="48" rx="24" stroke="#5A78AD" stroke-width="4"/>
<path fill-rule="evenodd" clip-rule="evenodd" d="M21.4353 15.25H30.5647C31.1346 15.25 31.6186 15.25 32.0185 15.2913C32.4443 15.3353 32.8378 15.4309 33.2096 15.6607C33.5814 15.8905 33.8429 16.1997 34.0727 16.5609C34.2885 16.9001 34.5049 17.333 34.7598 17.8428L34.7763 17.8757C34.786 17.8952 34.7949 17.915 34.8029 17.9353L36.2065 21.4834C36.3735 21.9056 36.5586 22.4323 36.6127 22.9713C36.6681 23.5226 36.5921 24.1541 36.1601 24.7019C35.8068 25.15 35.3155 25.4863 34.75 25.6463V35.25H36C36.4142 35.25 36.75 35.5858 36.75 36C36.75 36.4142 36.4142 36.75 36 36.75H16C15.5858 36.75 15.25 36.4142 15.25 36C15.25 35.5858 15.5858 35.25 16 35.25H17.25V25.6464C16.6845 25.4863 16.1931 25.15 15.8398 24.7019C15.4078 24.1541 15.3318 23.5226 15.3872 22.9713C15.4413 22.4323 15.6264 21.9056 15.7934 21.4834L17.197 17.9353C17.205 17.915 17.2139 17.8952 17.2236 17.8757L17.2401 17.8428C17.495 17.3329 17.7114 16.9001 17.9272 16.5609C18.157 16.1997 18.4185 15.8905 18.7903 15.6607C19.1621 15.4309 19.5556 15.3353 19.9814 15.2913C20.3813 15.25 20.8653 15.25 21.4353 15.25ZM31.9999 24.8875C32.3359 25.2433 32.7658 25.5096 33.25 25.6465V35.25H29.25L29.25 32.4678C29.25 32.028 29.25 31.6486 29.2218 31.3374C29.192 31.0082 29.1259 30.6822 28.9486 30.375C28.7511 30.033 28.467 29.7489 28.125 29.5514C27.8178 29.3741 27.4918 29.308 27.1627 29.2782C26.8514 29.25 26.472 29.25 26.0322 29.25H25.9678C25.528 29.25 25.1486 29.25 24.8373 29.2782C24.5082 29.308 24.1822 29.3741 23.875 29.5514C23.533 29.7489 23.2489 30.033 23.0514 30.375C22.8741 30.6822 22.808 31.0082 22.7782 31.3374C22.75 31.6486 22.75 32.028 22.75 32.4677L22.75 35.25H18.75V25.6465C19.2341 25.5095 19.664 25.2433 19.9999 24.8875C20.5013 25.4186 21.2119 25.75 21.9999 25.75C22.7879 25.75 23.4985 25.4186 23.9999 24.8875C24.5013 25.4186 25.2119 25.75 25.9999 25.75C26.7879 25.75 27.4985 25.4186 27.9999 24.8875C28.5013 25.4186 29.2119 25.75 29.9999 25.75C30.7879 25.75 31.4985 25.4186 31.9999 24.8875ZM24.25 35.25H27.75V32.5C27.75 32.0189 27.7493 31.7082 27.7279 31.4727C27.7075 31.2476 27.6731 31.1659 27.6495 31.125C27.5837 31.011 27.489 30.9163 27.375 30.8505C27.3341 30.8269 27.2524 30.7925 27.0273 30.7721C26.7918 30.7507 26.4811 30.75 26 30.75C25.5189 30.75 25.2082 30.7507 24.9727 30.7721C24.7476 30.7925 24.6659 30.8269 24.625 30.8505C24.511 30.9163 24.4163 31.011 24.3505 31.125C24.3269 31.1659 24.2925 31.2476 24.2721 31.4727C24.2507 31.7082 24.25 32.0189 24.25 32.5V35.25ZM20.7499 23C20.7499 23.6904 21.3096 24.25 21.9999 24.25C22.6903 24.25 23.2499 23.6904 23.2499 23C23.2499 22.5858 23.5857 22.25 23.9999 22.25C24.4141 22.25 24.7499 22.5858 24.7499 23C24.7499 23.6904 25.3096 24.25 25.9999 24.25C26.6903 24.25 27.2499 23.6904 27.2499 23C27.2499 22.5858 27.5857 22.25 27.9999 22.25C28.4141 22.25 28.7499 22.5858 28.7499 23C28.7499 23.6904 29.3096 24.25 29.9999 24.25C30.6903 24.25 31.2499 23.6904 31.2499 23C31.2499 22.5858 31.5857 22.25 31.9999 22.25C32.4141 22.25 32.7499 22.5858 32.7499 23C32.7499 23.6904 33.3096 24.25 33.9999 24.25C34.3979 24.25 34.7522 24.0649 34.9823 23.773C35.0962 23.6286 35.1513 23.4309 35.1202 23.1211C35.0879 22.799 34.969 22.4328 34.8117 22.0352L33.4201 18.5174C33.1524 17.982 32.9735 17.6275 32.8071 17.3661C32.6472 17.1147 32.5325 17.0056 32.421 16.9367C32.3095 16.8678 32.1606 16.814 31.8642 16.7834C31.5505 16.7509 31.1446 16.75 30.5278 16.75H21.4721C20.8553 16.75 20.4494 16.7509 20.1357 16.7834C19.8393 16.814 19.6904 16.8678 19.5789 16.9367C19.4674 17.0056 19.3527 17.1147 19.1928 17.3661C19.0265 17.6275 18.8476 17.982 18.5798 18.5174L17.1882 22.0352C17.031 22.4328 16.912 22.799 16.8797 23.1211C16.8486 23.4309 16.9037 23.6286 17.0176 23.7731C17.2477 24.0649 17.602 24.25 17.9999 24.25C18.6903 24.25 19.2499 23.6904 19.2499 23C19.2499 22.5858 19.5857 22.25 19.9999 22.25C20.4141 22.25 20.7499 22.5858 20.7499 23Z" fill="#5A78AD"/>
</svg>
