<svg width="52" height="52" viewBox="0 0 52 52" fill="none" xmlns="http://www.w3.org/2000/svg">
<rect x="2" y="2" width="48" height="48" rx="24" stroke="#5A78AD" stroke-width="4"/>
<path fill-rule="evenodd" clip-rule="evenodd" d="M15.75 20.5C15.75 17.8766 17.8766 15.75 20.5 15.75C23.1234 15.75 25.25 17.8766 25.25 20.5V23.1667C25.25 23.1879 25.25 23.2093 25.2501 23.2308C25.2506 23.4734 25.2511 23.7264 25.1904 23.9529C25.0286 24.5568 24.5568 25.0286 23.9529 25.1904C23.7264 25.2511 23.4734 25.2506 23.2308 25.2501C23.2093 25.25 23.1879 25.25 23.1667 25.25H20.5C17.8766 25.25 15.75 23.1234 15.75 20.5ZM20.5 17.25C18.7051 17.25 17.25 18.7051 17.25 20.5C17.25 22.2949 18.7051 23.75 20.5 23.75H23.1667C23.3285 23.75 23.4248 23.7498 23.4971 23.7465C23.5427 23.7444 23.5623 23.7416 23.5671 23.7408C23.6514 23.7173 23.7173 23.6514 23.7408 23.5671C23.7416 23.5623 23.7444 23.5427 23.7465 23.4971C23.7498 23.4248 23.75 23.3285 23.75 23.1667V20.5C23.75 18.7051 22.2949 17.25 20.5 17.25Z" fill="#5A78AD"/>
<path fill-rule="evenodd" clip-rule="evenodd" d="M28.7692 26.7499C28.7907 26.75 28.8121 26.75 28.8333 26.75H31.5C34.1234 26.75 36.25 28.8766 36.25 31.5C36.25 34.1234 34.1234 36.25 31.5 36.25C28.8766 36.25 26.75 34.1234 26.75 31.5V28.8333C26.75 28.8121 26.75 28.7907 26.7499 28.7692C26.7494 28.5266 26.7489 28.2736 26.8096 28.0471C26.9714 27.4432 27.4432 26.9714 28.0471 26.8096C28.2736 26.7489 28.5266 26.7494 28.7692 26.7499ZM28.4329 28.2592C28.3486 28.2827 28.2827 28.3486 28.2592 28.4329C28.2584 28.4377 28.2556 28.4573 28.2535 28.5029C28.2502 28.5752 28.25 28.6715 28.25 28.8333V31.5C28.25 33.2949 29.7051 34.75 31.5 34.75C33.2949 34.75 34.75 33.2949 34.75 31.5C34.75 29.7051 33.2949 28.25 31.5 28.25H28.8333C28.6715 28.25 28.5752 28.2502 28.5029 28.2535C28.4573 28.2556 28.4377 28.2584 28.4329 28.2592Z" fill="#5A78AD"/>
<path fill-rule="evenodd" clip-rule="evenodd" d="M23.4957 28.2611C23.3666 28.2506 23.1924 28.25 22.9 28.25H20.5C18.7051 28.25 17.25 29.7051 17.25 31.5C17.25 33.2949 18.7051 34.75 20.5 34.75C22.2949 34.75 23.75 33.2949 23.75 31.5V29.1C23.75 28.8076 23.7494 28.6334 23.7389 28.5043C23.7324 28.4255 23.7239 28.3923 23.7212 28.3835C23.6977 28.3388 23.6612 28.3023 23.6165 28.2788C23.6077 28.2761 23.5745 28.2676 23.4957 28.2611ZM23.6191 28.2797L23.6176 28.2792L23.6191 28.2797ZM23.7203 28.3809L23.7208 28.3824L23.7203 28.3809ZM23.6179 26.7661C23.831 26.7835 24.0642 26.8234 24.2945 26.9407C24.6238 27.1085 24.8915 27.3762 25.0593 27.7055C25.1766 27.9358 25.2165 28.169 25.2339 28.3821C25.25 28.5798 25.25 28.8163 25.25 29.0738L25.25 31.5C25.25 34.1234 23.1234 36.25 20.5 36.25C17.8766 36.25 15.75 34.1234 15.75 31.5C15.75 28.8766 17.8766 26.75 20.5 26.75L22.9262 26.75C23.1837 26.75 23.4202 26.75 23.6179 26.7661Z" fill="#5A78AD"/>
<path fill-rule="evenodd" clip-rule="evenodd" d="M26.75 20.5C26.75 17.8766 28.8766 15.75 31.5 15.75C34.1234 15.75 36.25 17.8766 36.25 20.5C36.25 23.1234 34.1234 25.25 31.5 25.25H28.6429C28.6337 25.25 28.6246 25.25 28.6154 25.25C28.5114 25.2501 28.4035 25.2502 28.3041 25.239C27.4927 25.1476 26.8524 24.5073 26.761 23.6959C26.7498 23.5965 26.7499 23.4886 26.75 23.3846C26.75 23.3754 26.75 23.3663 26.75 23.3571V20.5ZM31.5 17.25C29.7051 17.25 28.25 18.7051 28.25 20.5V23.3571C28.25 23.4264 28.25 23.4676 28.2506 23.4987C28.251 23.5185 28.2516 23.5271 28.2517 23.5292C28.2652 23.6441 28.3559 23.7348 28.4708 23.7483C28.4729 23.7484 28.4815 23.749 28.5013 23.7494C28.5324 23.75 28.5736 23.75 28.6429 23.75H31.5C33.2949 23.75 34.75 22.2949 34.75 20.5C34.75 18.7051 33.2949 17.25 31.5 17.25Z" fill="#5A78AD"/>
</svg>
