<svg width="56" height="56" viewBox="0 0 56 56" fill="none" xmlns="http://www.w3.org/2000/svg">
<rect x="4" y="4" width="48" height="48" rx="24" fill="#EFF1F7"/>
<rect x="4" y="4" width="48" height="48" rx="24" stroke="#5A78AD" stroke-opacity="0.06" stroke-width="8"/>
<path d="M17 19.9996V25.9996M17 25.9996H23M17 25.9996L21.64 21.6396C22.7147 20.5643 24.0444 19.7788 25.5048 19.3564C26.9652 18.9339 28.5089 18.8883 29.9917 19.2238C31.4745 19.5594 32.8482 20.265 33.9845 21.275C35.1209 22.285 35.9828 23.5664 36.49 24.9996M39 35.9996V29.9996M39 29.9996H33M39 29.9996L34.36 34.3596C33.2853 35.4349 31.9556 36.2204 30.4952 36.6428C29.0348 37.0652 27.4911 37.1108 26.0083 36.7753C24.5255 36.4398 23.1518 35.7342 22.0155 34.7242C20.8791 33.7142 20.0172 32.4328 19.51 30.9996" stroke="#5A78AD" stroke-width="2" stroke-linecap="round" stroke-linejoin="round"/>
</svg>
