<svg width="1728" height="1081" viewBox="0 0 1728 1081" fill="none" xmlns="http://www.w3.org/2000/svg">
<mask id="mask0_844_9918" style="mask-type:alpha" maskUnits="userSpaceOnUse" x="0" y="0" width="1728" height="1081">
<rect y="0.888672" width="1728" height="1079.84" fill="#5A78AD"/>
</mask>
<g mask="url(#mask0_844_9918)">
<rect y="0.888672" width="1728" height="1079.84" fill="#5A78AD"/>
<path fill-rule="evenodd" clip-rule="evenodd" d="M597.189 230.238C597.075 200.609 551.589 167.289 532.159 150.111C493.741 116.135 453.784 84.7601 414.197 52.8839C374.611 21.0076 334.917 -10.7823 297.169 -45.7779C272.659 -68.4949 243.86 -94.0806 227.237 -126.519C191.826 -195.646 303.475 -185.38 332.395 -186.892C405.968 -190.755 490.356 -188.992 559.319 -224.99C600.487 -246.48 616.903 -282.521 608.061 -335.049C605.211 -352.132 596.775 -371.79 603.922 -388.433C611.553 -406.207 629.109 -416.464 643.679 -423.342C696.825 -448.401 757.929 -451.304 814.159 -454.449C874.793 -457.906 935.997 -456.895 996.203 -457.162C1021.73 -457.275 1048.39 -468.396 1072.7 -477.434C1104.57 -489.281 1136.07 -502.588 1167.67 -515.454C1237.21 -543.692 1308.85 -573.434 1382.42 -580.606C1428.49 -585.1 1478.84 -579.025 1514.63 -539.942C1532.6 -520.319 1542.01 -491.147 1552.39 -465.233C1564.97 -433.927 1577.05 -402.319 1590.44 -371.505C1633.56 -272.265 1695.14 -175.288 1795.08 -170.414C1810.2 -169.68 1825.05 -172.073 1840.1 -172.523C1849.68 -172.799 1858.21 -169.991 1861.77 -157.833C1870.73 -127.339 1842.57 -79.2009 1831.03 -55.0064C1805.76 -2.04632 1777.26 48.5375 1750.56 100.435C1732.9 134.756 1702.33 181.659 1702.01 223.36C1701.72 260.516 1742.48 287.372 1764.66 305.673C1785.45 322.808 1823.12 346.787 1825.4 381.644C1826.51 398.546 1817.32 412.553 1807.72 423.423C1790.9 442.433 1771.52 455.844 1756.38 477.532C1731.57 513.115 1710.83 562.075 1714.2 610.023C1716.54 643.247 1732.17 665.005 1752.06 685.804C1760.42 694.548 1767.2 700.735 1767.64 714.932C1768.35 737.476 1761.07 761.334 1755.07 782.236C1733.61 857.04 1703.13 929.373 1669.22 996.911C1652.28 1030.66 1633.98 1064.31 1611.51 1093.1C1596.8 1112.01 1576.95 1134.51 1554.51 1134.48C1528.53 1134.48 1501.03 1123.11 1475.77 1114.61C1428.6 1098.72 1381.99 1080.35 1335.57 1061.5C1228.22 1017.9 1121.88 970.766 1016.55 920.102C942.359 884.354 866.592 848.555 796.838 801.03C783.235 791.697 770.395 780.815 758.492 768.532C745.773 755.631 729.991 749.859 713.989 745.556C614.666 718.847 505.853 739.351 406.117 752.209C380.802 755.467 355.487 758.742 330.101 761.023C308.277 762.984 282.15 768.609 260.938 760.159C219.143 743.525 255.68 682.218 271.127 657.237C325.512 569.281 395.679 494.866 460.716 418.895C491.639 382.716 522.796 346.631 552.037 308.404C567.264 288.53 597.288 256.213 597.189 230.238Z" stroke="white" stroke-opacity="0.15"/>
<path fill-rule="evenodd" clip-rule="evenodd" d="M615.93 225.243C599.26 193.89 570.014 170.717 545.736 148.908C510.8 117.512 474.766 87.8611 439.273 57.355C405.713 28.5071 372.081 -0.668908 341.002 -33.4294C322.05 -53.4069 298.272 -77.2971 289.296 -106.845C269.824 -170.889 374.576 -161.172 400.437 -162.847C464.727 -166.993 537.615 -167.943 597.093 -201.662C634.232 -222.72 649.49 -257.639 641.569 -306.119C638.831 -322.892 633.897 -337.213 640.143 -353.9C647.366 -373.212 663.978 -385.252 679.208 -393.751C726.914 -420.379 783.304 -426.036 835.017 -430.744C888.441 -435.606 944.104 -439.035 995.81 -435.477C1016.49 -434.06 1040.29 -442.101 1060.75 -448.268C1092.23 -457.769 1123.4 -468.73 1154.73 -478.921C1218.4 -499.65 1283.72 -519.619 1349.96 -521.891C1397.78 -523.532 1447.64 -514.636 1487.42 -480.251C1527.74 -445.384 1545.63 -391.333 1567.99 -339.951C1606.61 -251.118 1658.76 -143.112 1748.1 -124.343C1761.65 -121.493 1774.66 -123.039 1788.2 -122.339C1795.16 -121.985 1803.08 -120.863 1806.61 -112.545C1815.77 -90.9523 1790.66 -51.4722 1782.22 -34.9322C1758.87 10.7752 1732.63 54.2456 1708.16 99.0721C1688.74 134.665 1664.11 174.215 1656.59 216.407C1647.47 267.607 1707.06 304.039 1728.01 340.09C1764.34 402.605 1695.52 438.224 1661.58 468.031C1622.62 502.251 1590.46 564.68 1625.39 617.625C1638.75 637.87 1655.19 649.936 1661.16 676.357C1670.49 717.677 1663.43 764.896 1655.86 805.741C1644.45 867.142 1626.4 927.878 1601.86 983.371C1584.28 1023.1 1555.11 1085.4 1512.39 1080.73C1483.64 1077.61 1454.4 1066.22 1426.41 1056.15C1384.48 1041.08 1343.09 1023.9 1301.91 1006.05C1206.86 964.974 1112.86 919.681 1020.71 869.862C957.829 835.858 782.434 696.896 769.237 691.939C729.887 677.169 685.147 679.769 644.578 682.058C590.612 685.098 536.917 692.975 483.264 700.273C457.725 703.728 432.058 707.952 406.383 709.653C388.109 710.862 364.11 711.899 348.103 699.021C316.86 673.896 351.668 616.407 366.063 592.085C410.162 517.521 465.946 452.951 518.251 386.929C543.918 354.514 569.978 322.151 593.278 287.136C602.676 272.997 626.233 244.607 615.93 225.243Z" stroke="white" stroke-opacity="0.15"/>
<path fill-rule="evenodd" clip-rule="evenodd" d="M638.992 209.164C593.467 146.424 530.634 99.7617 476.405 47.3631C449.187 21.0558 421.798 -5.96847 398.322 -37.3039C386.111 -53.598 370.862 -74.2033 368.51 -96.9166C362.222 -157.678 456.636 -149.462 484.895 -151.769C539.53 -156.244 601.252 -159.639 650.819 -190.646C681.102 -209.601 696.015 -240.712 690.355 -281.603C687.846 -299.746 683.939 -315.159 690.355 -332.974C696.857 -351.021 710.401 -363.756 724.117 -373.303C763.533 -400.759 812.515 -409.537 856.892 -416.077C908.951 -423.695 961.401 -426.669 1013.82 -424.976C1059.73 -423.516 1105.42 -439.939 1150.24 -450.765C1209.63 -465.098 1270.09 -477.616 1330.85 -475.724C1378.84 -474.221 1427.21 -462.411 1468.24 -431.023C1509.93 -399.057 1534.99 -351.212 1557.59 -299.582C1591.75 -221.533 1634.33 -116.943 1709.27 -87.3007C1720.17 -82.981 1730.33 -82.5058 1741.57 -81.7542C1747.03 -81.3913 1754.08 -81.279 1756.79 -74.376C1763.31 -57.7536 1739.22 -25.5283 1732.5 -14.297C1711.04 21.557 1687.78 55.7953 1665.79 91.1741C1645.26 124.203 1622.89 158.623 1610.14 197.328C1589.84 258.97 1654.73 295.014 1652.91 353.754C1651.78 390.222 1622.97 416.374 1600.16 434.465C1572.07 456.711 1531.63 471.338 1517.57 511.935C1507.1 542.173 1523.53 559.772 1536.18 582.718C1557.63 621.596 1559.09 674.297 1556.86 719.3C1553.85 780.114 1542.09 841.826 1522.08 897.723C1513.02 923.063 1501.91 949.422 1485.56 969.103C1470.24 987.548 1455.74 992.274 1435.26 988.499C1372.58 976.922 1309.3 944.653 1249.2 915.832C1173.68 879.615 1099.21 839.631 1026.96 794.645C977.69 763.967 927.311 731.508 884.067 689.123C872.796 678.073 861.255 666.064 853.014 651.489C846.783 640.534 844.138 631.488 833.638 625.233C802.513 606.702 759.22 611.548 725.871 613.475C672.547 616.542 619.48 624.706 566.484 632.059C535.56 636.378 477.303 649.968 452.608 617.372C431.293 589.224 457.014 541.232 470.153 516.436C503.387 453.731 546.139 398.697 585.804 342.031C603.982 316.06 622.874 289.891 637.887 261.018C641.722 253.657 647.867 243.903 648.922 234.961C650.106 224.715 644.581 216.896 638.992 209.164Z" stroke="white" stroke-opacity="0.15"/>
<path fill-rule="evenodd" clip-rule="evenodd" d="M642.906 223.77C600.839 168.296 550.16 122.722 504.999 70.8107C484.75 47.5353 464.302 23.1184 448.873 -5.27552C440.574 -20.5446 431.761 -39.765 434.05 -58.7433C440.616 -113.214 518.268 -108.294 549.64 -111.485C596.255 -116.171 649.808 -120.892 691.025 -150.263C718.026 -169.501 728.151 -197.912 723.11 -234.554C717.698 -273.86 729.798 -302.392 757.334 -324.318C791.857 -351.787 835.435 -362.984 875.519 -370.938C923.813 -380.476 972.718 -384.704 1021.64 -383.571C1069.22 -382.464 1115.31 -392.13 1162.58 -398.416C1225.24 -406.742 1289.92 -410.849 1351.87 -393.782C1405.82 -378.919 1454.55 -346.167 1491.07 -295.518C1529.22 -242.656 1548.11 -176.054 1579.09 -117.572C1598.41 -81.0935 1625.36 -32.8394 1661.46 -18.6597C1673.5 -13.9303 1695.45 -20.3111 1685.83 2.95567C1680.33 16.2621 1670.05 27.9344 1661.92 38.8113C1648.79 56.3889 1635.22 73.4824 1621.86 90.8179C1593.4 127.772 1562.92 165.512 1541.59 209.27C1514.71 264.363 1554.66 306.764 1549.79 362.627C1547.18 392.69 1529.94 416.683 1511.7 435.531C1499.9 447.74 1486.99 458.314 1473.8 468.179C1460.04 478.485 1443.74 486.336 1431.74 499.66C1414.62 518.621 1422.05 541.066 1425.26 565.578C1430.91 608.655 1432.15 652.413 1428.96 695.858C1425.05 749.11 1415.89 803.883 1396.59 852.276C1389.08 871.116 1379.57 891.088 1365.44 903.72C1351.32 916.353 1336.71 915.488 1320.52 911.684C1272.52 900.444 1224.61 874.289 1179.07 849.5C1122.08 818.469 1066.2 783.79 1012.84 744.337C976.008 717.102 939.053 687.679 908.238 650.751C899.276 640.004 890.748 628.496 883.854 615.648C879.119 606.838 876.581 595.468 869.722 588.845C848.261 568.172 805.175 574.345 780.007 575.547C729.776 577.942 680.338 589.329 630.172 592.096C602.793 593.609 559.914 597.413 539.807 569.149C520.899 542.579 538.025 500.732 549.326 475.131C571.535 424.793 601.374 379.945 628.118 333.152C639.113 313.897 651.162 293.752 658.285 271.765C664.616 252.172 653.686 237.993 642.906 223.77Z" stroke="white" stroke-opacity="0.15"/>
<path fill-rule="evenodd" clip-rule="evenodd" d="M653.252 224.677C619.769 175.862 579.403 132.529 545.678 82.9194C525.936 53.8668 491.94 5.02557 507.207 -35.933C523.956 -80.9408 582.338 -82.1667 616.086 -85.7929C656.252 -90.1097 703.421 -96.0066 737.795 -124.109C748.666 -132.994 757.927 -144.753 761.853 -160.242C766.056 -176.819 761.461 -191.323 760.863 -207.917C759.609 -242.729 776.749 -270.676 799.433 -289.869C831.491 -317.005 871.579 -329.835 909.444 -338.779C952.343 -348.868 995.954 -353.842 1039.65 -353.629C1081.41 -353.457 1122.73 -354.579 1164.54 -355.874C1219.21 -357.601 1274.65 -354.812 1327.68 -337.208C1379.92 -319.854 1427.42 -287.331 1464.73 -239.491C1501.13 -192.808 1525.68 -135.748 1547.19 -77.6254C1559.39 -44.6358 1580.01 4.66296 1609.12 21.3261C1622.07 28.7425 1634.77 28.2331 1621 47.521C1603.67 71.8077 1580.31 91.2941 1560.24 112.067C1531.28 142.043 1501.59 172.607 1477.28 208.247C1461.76 231.006 1454.84 253.091 1455.91 282.558C1456.74 305.006 1460.48 327.22 1458.59 349.754C1454.15 402.645 1419.79 438.915 1389.41 472.691C1369.87 494.413 1352.03 510.981 1341.97 541.881C1330.07 578.402 1325.07 618.135 1317.12 656.054C1308.39 697.695 1298.3 741.01 1279.24 777.687C1262.27 810.34 1241.63 824.982 1210.74 816.185C1162.56 802.474 1115.07 768.699 1072.3 737.453C1028.76 705.664 985.972 669.92 949.895 626.225C930.418 602.629 917.124 574.923 899.826 549.574C878.069 517.75 828.848 529.803 799.597 532.497C751.038 536.969 598.247 570.433 612.345 462.045C618.23 416.804 641.405 375.051 658.353 335.129C665.378 318.561 675.544 298.677 677.132 279.691C678.864 259.014 663.319 239.372 653.252 224.677Z" stroke="white" stroke-opacity="0.15"/>
<path fill-rule="evenodd" clip-rule="evenodd" d="M670.931 228.821C645.343 184.585 614.721 142.793 592.766 95.0148C578.523 64.0725 564.536 22.7298 582.91 -10.0092C603.647 -46.9551 649.374 -55.5674 682.973 -60.2753C717.591 -65.1213 758.917 -69.1985 787.21 -97.2124C796.212 -106.136 803.632 -118.169 805.014 -132.578C806.345 -146.399 802.585 -160.22 803.832 -174.292C806.623 -205.89 822.426 -231.926 842.8 -250.809C903.069 -306.673 992.771 -319.095 1065.49 -320.555C1101.89 -321.28 1139.35 -317.471 1175.98 -314.741C1223.51 -311.199 1271.12 -303.598 1316.46 -285.276C1412.84 -246.335 1477.45 -159.969 1522.57 -52.5008C1536.77 -18.6734 1547.64 17.9269 1569.89 45.1115C1581.37 59.1487 1578.86 69.2295 1567.13 82.0314C1548.79 102.038 1526.43 117.327 1506.07 134.025C1477.12 157.772 1447.55 181.872 1421.95 210.318C1404.31 229.927 1391.78 248.819 1387.98 278.224C1385.26 299.189 1385.9 320.551 1384.27 341.646C1381.16 381.719 1370.53 421.489 1351.71 454.729C1336.75 481.076 1318.95 505.021 1300.55 527.852C1276.63 557.576 1256.39 587.776 1238.23 623.054C1214.14 669.753 1180.3 755.894 1123.57 733.097C1061 707.943 1002.36 644.028 962.213 582.1C948.732 561.308 937.665 535.808 919.484 520.475C892.266 497.558 864.649 498.361 832.275 498.456C783.806 498.586 678.337 511.344 677.198 423.303C676.749 388.422 689.197 355.441 695.158 321.89C701.881 284.314 688.407 258.969 670.931 228.821Z" stroke="white" stroke-opacity="0.15"/>
<path fill-rule="evenodd" clip-rule="evenodd" d="M689.989 232.765C664.68 175.111 607.926 80.3722 651.091 16.2607C673.893 -17.6208 714.222 -30.3533 748.054 -37.941C775.28 -44.0786 808.114 -46.3833 828.685 -72.4008C843.805 -91.5298 837.093 -119.369 842.886 -143.314C850.075 -173.001 866.578 -197.292 886.857 -215.549C943.525 -266.574 1022.32 -282.233 1090.49 -285.565C1161.28 -289.018 1239.29 -272.867 1305.92 -241.8C1388.98 -203.05 1451.22 -129.676 1494.74 -36.7584C1502.77 -19.6062 1510.07 -2.00511 1517.78 15.3543C1522.96 26.9991 1530.64 38.2642 1534.72 50.5133C1541.52 70.9372 1533.51 87.6319 1520.67 100.943C1502.2 120.106 1479.51 133.745 1458.46 148.126C1429.66 167.808 1400.23 187.135 1373.44 210.227C1355.44 225.765 1336.6 242.503 1330.16 269.461C1325.77 287.848 1324.85 307.322 1325.01 326.365C1325.35 367.195 1323.59 400.213 1307.87 437.608C1282 499 1242.23 554.203 1200.21 600.135C1167.23 636.184 1115.05 692.181 1067.01 668.08C1023.9 646.499 998.683 594.844 970.281 553.081C956.472 532.778 940.96 514.236 922.733 499.794C899.754 481.589 878.121 473.95 850.895 470.972C805.071 465.956 735.976 464.653 721.811 398.012C716.581 373.419 719.566 347.945 716.823 323.033C713.239 290.092 702.758 261.847 689.989 232.765Z" stroke="white" stroke-opacity="0.15"/>
<path fill-rule="evenodd" clip-rule="evenodd" d="M716.306 234.901C698.284 171.816 674.607 92.311 718.136 36.2429C739.221 9.08165 768.879 -6.10209 797.583 -17.4488C818.14 -25.5807 850.782 -27.9745 863.386 -52.9753C872.643 -71.3737 873.924 -96.7547 882.298 -116.467C893.806 -143.567 911.237 -165.889 931.688 -183.363C984.965 -228.897 1054.36 -246.492 1117.64 -251.53C1255.14 -262.462 1395.05 -175.395 1468.63 -32.1485C1490.57 10.5507 1518.89 55.998 1483.43 99.622C1444.72 147.212 1386.41 169.508 1340.21 203.324C1322.56 216.235 1300.07 231.755 1290.22 255.132C1284.29 269.183 1283.89 286.812 1283.62 302.281C1282.91 341.679 1280.21 377.111 1267.14 413.873C1246.96 470.684 1214.78 523.097 1178.32 566.03C1146.51 603.466 1101.16 647.462 1054.98 620.473C1019.57 599.733 997.106 555.711 969.592 523.261C938.972 487.121 901.104 462.769 859.519 450.869C819.066 439.323 774.697 431.537 753.377 382.486C746.064 365.66 738.423 343.874 735.682 325.251C731.256 294.546 724.776 264.329 716.306 234.901Z" stroke="white" stroke-opacity="0.15"/>
<path fill-rule="evenodd" clip-rule="evenodd" d="M745.651 235.345C737.313 171.643 736.386 105.218 775.125 55.0114C793.204 31.5884 816.058 14.9477 839.169 -0.129078C856.172 -11.2228 873.732 -20.58 886.431 -38.7672C898.196 -55.6065 907.14 -75.1588 918.499 -92.4388C933.483 -115.339 951.412 -135.162 971.597 -151.148C1022.19 -191.142 1083.74 -209.848 1142.63 -216.336C1171.13 -219.49 1202.05 -221.132 1230.37 -212.535C1257.71 -204.24 1284.75 -191.125 1309.89 -175.832C1363.34 -143.354 1409.66 -95.7911 1443.24 -35.6567C1466.26 5.5906 1478.71 45.6975 1448.9 87.541C1415.28 134.707 1362.57 160.73 1319.13 191.342C1289.34 212.337 1255.94 232.918 1250.38 277.535C1245.95 313.036 1242.35 346.732 1230.88 380.29C1213.82 429.788 1188.72 474.627 1157.09 512.145C1128.17 546.325 1091.58 575.329 1050.2 557.073C1017.42 542.584 991.986 510.123 963.345 486.916C931.426 460.996 896.358 446.706 859.429 435.214C826.242 424.846 794.993 408.914 773.543 375.089C769.153 368.177 764.542 360.651 761.157 352.918C756.839 343.052 757.174 333.271 756.326 322.212C754.117 293.026 749.42 264.177 745.651 235.345Z" stroke="white" stroke-opacity="0.15"/>
<path fill-rule="evenodd" clip-rule="evenodd" d="M778.006 230.139C778.718 169.63 790.72 112.445 823.593 65.2903C837.647 45.118 854.428 28.5026 869.892 10.0178C882.343 -4.88421 894.111 -18.7305 908.428 -31.0104C942.39 -60.0875 969.992 -97.7147 1006.08 -123.607C1054.26 -158.223 1109.45 -177.357 1164.21 -185.007C1190.95 -188.745 1218.58 -190.052 1245.63 -185.829C1268.87 -182.203 1291.12 -169.473 1311.76 -156.449C1352.22 -130.937 1391.5 -94.6771 1417.77 -48.8028C1475.69 52.3354 1361.5 125.868 1302.89 168.929C1275.94 188.738 1234.75 211.68 1223.71 250.917C1215.82 278.947 1211.01 307.453 1200.85 334.617C1173.55 407.57 1118.12 493.373 1044.26 481.95C1012.66 477.069 983.853 457.243 954.35 443.933C923.97 430.226 892.615 422.584 861.038 414.198C831.528 406.367 808.008 395.22 788.947 365.339C779.836 351.068 780.641 333.985 779.829 316.479C778.504 287.722 777.685 258.8 778.006 230.139Z" stroke="white" stroke-opacity="0.15"/>
<path fill-rule="evenodd" clip-rule="evenodd" d="M807.468 222.388C819.334 131.057 863.403 31.3487 928.201 -21.692C1004.42 -84.0852 1087 -136.625 1178.07 -151.729C1220.29 -158.732 1266.54 -162.178 1306.38 -139.276C1336.7 -121.858 1371.92 -95.8212 1388.61 -59.2056C1429.43 30.3555 1338.63 101.652 1286.89 143.086C1259.04 165.393 1223.58 187.129 1202.59 219.703C1190.41 238.589 1184.19 263.572 1174.36 284.315C1144.56 347.175 1095.51 397.875 1034.4 406.943C1006.15 411.131 977.69 405.949 949.651 401.83C920.949 397.616 891.89 395.328 863.367 389.447C840.598 384.749 813.764 376.795 805.378 347.252C794.803 310.024 802.626 259.686 807.468 222.388Z" stroke="white" stroke-opacity="0.15"/>
<path fill-rule="evenodd" clip-rule="evenodd" d="M836.359 207.717C853.664 121.85 890.309 38.0914 951.914 -13.1696C984.582 -40.3515 1022.51 -59.1152 1058.92 -77.6542C1100.19 -98.665 1143.31 -114.974 1187.35 -123.064C1242.19 -133.141 1331 -142.225 1359.65 -66.4703C1388.08 8.72282 1316.23 75.2731 1273.73 113.198C1246.49 137.493 1217.33 159.792 1191.31 186.351C1177.19 200.75 1166.32 217.388 1154.37 234.276C1121.36 281.069 1074.3 318.112 1026.33 337.887C979.842 357.057 922.329 365.544 873.254 359.209C852.079 356.487 836.944 347.299 830.54 321.18C821.666 284.872 829.205 243.187 836.359 207.717Z" stroke="white" stroke-opacity="0.15"/>
<path fill-rule="evenodd" clip-rule="evenodd" d="M865.066 184.59C882.258 108.987 919.339 39.934 973.426 -5.44138C1034.06 -56.308 1112.13 -84.5729 1183.88 -98.9464C1222.02 -106.581 1304.68 -127.28 1324.12 -68.0391C1343.56 -8.79804 1287.36 49.5823 1255.01 81.7203C1215.75 120.666 1173.42 158.27 1131.15 193.214C1094.41 223.596 1055.22 254.658 1015.43 278.12C992.994 291.43 969.619 302.298 945.585 310.594C927.789 316.688 905.158 325.777 886.5 321.241C839.439 309.785 856.844 220.738 865.066 184.59Z" stroke="white" stroke-opacity="0.15"/>
<path fill-rule="evenodd" clip-rule="evenodd" d="M900.502 161.95C938.223 18.9766 1057.73 -51.3404 1172.8 -75.8499C1199.54 -81.5392 1274.49 -102.052 1289.44 -58.3764C1303.92 -16.0308 1257.86 34.1882 1236.3 57.9812C1169.48 131.708 1086.92 186.373 1008.69 240.529C984.27 257.433 940.23 294.115 909.94 277.194C877.052 258.788 892.688 191.597 900.502 161.95Z" stroke="white" stroke-opacity="0.15"/>
<path fill-rule="evenodd" clip-rule="evenodd" d="M939.14 134.432C971.943 29.1421 1067.35 -31.2454 1155.08 -51.1529C1176.56 -56.0239 1231.13 -71.1899 1247.4 -41.808C1262.46 -14.6285 1226.52 24.7547 1213.08 40.4043C1183.14 75.2532 1147.67 103.961 1112.63 131.556C1080.22 157.086 1047.47 183.255 1013.37 204.846C995.414 216.212 961.732 240.464 941.325 222.914C919.353 204.034 931.856 157.811 939.14 134.432Z" stroke="white" stroke-opacity="0.15"/>
<path fill-rule="evenodd" clip-rule="evenodd" d="M981.717 103.67C1006.72 34.9114 1073.68 -9.73783 1132.75 -24.5748C1148.64 -28.5584 1183 -38.8933 1196.41 -20.5307C1208.75 -3.6198 1188.85 21.1719 1180.03 32.6215C1140.89 83.3715 1083.59 128.703 1031.08 156.545C1017.88 163.545 994.153 177.284 980.574 163.156C966.644 148.647 975.973 119.457 981.717 103.67Z" stroke="white" stroke-opacity="0.15"/>
<path fill-rule="evenodd" clip-rule="evenodd" d="M1026.88 74.7871C1040.97 40.6445 1077.79 14.8849 1108.3 6.68506C1129.76 0.919018 1155.56 5.89993 1136.86 35.6199C1118.27 65.113 1083.79 92.0503 1054.56 103.992C1032.26 113.099 1014.79 104.114 1026.88 74.7871Z" stroke="white" stroke-opacity="0.15"/>
<path fill-rule="evenodd" clip-rule="evenodd" d="M-115.59 311.264C-116.494 243.81 -146.056 173.707 -131.456 104.975C-119.468 48.5267 -59.1124 43.8139 -22.9047 18.2393C5.86782 -2.07876 22.1965 -38.0713 37.7567 -72.6052C51.7374 -103.609 64.2952 -135.545 79.023 -166.039C88.557 -185.753 104.928 -224.464 125.604 -225.163C145.398 -225.837 163.548 -195.67 175.045 -177.838C190.036 -154.594 203.327 -129.813 217.884 -106.198C242.416 -66.3647 271.85 -36.8801 305.554 -8.9751C343.908 22.7766 382.895 53.4436 422.515 83.026C451.686 104.872 481.056 126.554 509.096 150.557C526.684 165.619 565.503 193.878 565.681 221.645C565.766 234.894 555.414 249.567 548.434 260.158C536.623 278.085 523.162 294.476 509.658 310.513C484.507 340.386 458.289 368.904 432.355 397.767C398.694 435.227 366.542 472.074 336.952 514.6C306.358 558.62 277.13 604.089 247.304 648.938C227.105 679.32 206.927 713.44 177.792 732.083C141.3 755.388 111.346 730.814 74.441 730.53C42.6944 730.279 45.0352 641.066 41.0011 616.26C36.9527 591.151 28.0307 567.778 24.5728 542.609C20.2612 511.191 20.2043 479.048 19.1442 447.293C17.8564 408.452 17.3441 371.476 -16.8856 356.664C-36.3661 348.249 -57.4403 346.479 -77.6039 341.439C-90.6668 338.167 -115.306 332.574 -115.59 311.264Z" stroke="white" stroke-opacity="0.15"/>
<path fill-rule="evenodd" clip-rule="evenodd" d="M-99.9832 299.264C-103.311 242.721 -122.971 170.35 -104.38 111.984C-88.4966 62.1057 -38.8236 55.6397 -5.37576 29.4386C22.2362 7.8277 34.5279 -27.5364 48.3303 -62.2781C59.4036 -90.1476 70.142 -118.285 82.7117 -145.264C91.975 -165.146 106.119 -198.712 125.38 -202.827C142.695 -206.527 161.265 -176.894 170.984 -161.818C185.164 -139.81 197.292 -115.908 209.819 -92.5075C231.83 -51.4036 254.369 -14.4402 286.584 15.7546C318.942 46.079 354.342 68.7532 390.12 92.3523C418.109 110.817 445.956 129.817 472.549 151.134C492.359 167.005 520.84 187.319 529.904 215.621C537.079 238.01 500.689 275.163 489.957 288.277C467.868 315.239 444.46 340.549 421.01 365.705C392.421 396.357 362.921 423.164 337.675 458.13C292.52 520.646 254.775 598.497 196.672 644.961C161.628 672.986 122.63 680.152 83.6522 675.96C68.2181 674.3 64.5127 647.874 62.5674 632.461C59.3324 606.856 58.9262 580.811 56.4393 555.103C54.1092 531.037 48.936 508.172 44.7675 484.573C40.5491 460.663 39.3663 436.165 36.2595 412.09C34.3355 397.144 32.433 379.752 24.0176 367.736C15.31 355.297 0.944672 350.084 -11.6107 346.125C-35.1896 338.76 -97.6317 339.166 -99.9832 299.264Z" stroke="white" stroke-opacity="0.15"/>
<path fill-rule="evenodd" clip-rule="evenodd" d="M-79.8959 275.594C-85.4923 223.692 -93.3273 159.048 -70.5281 111.229C-51.8923 72.1298 -12.147 63.6953 16.2416 38.2191C39.8535 17.0335 48.7722 -16.6614 60.4926 -47.9736C70.1099 -73.657 79.7771 -99.4525 91.4334 -123.893C100.274 -142.428 111.666 -167.559 129.218 -174.025C144.225 -179.55 161.179 -154.799 169.498 -142.48C183.664 -121.484 195.213 -97.9591 206.684 -74.7448C225.448 -36.7592 242.715 3.81625 269.421 34.714C295.372 64.6967 326.198 82.3946 357.603 102.294C381.657 117.54 405.561 133.373 428.225 151.554C445.627 165.505 467.193 182.038 476.261 205.252C484.103 225.272 463.971 248.97 453.911 263.094C437.3 286.403 418.864 307.787 400.684 329.257C381.065 352.42 359.335 373.787 340.35 397.519C300.426 447.462 268.53 502.756 219.324 541.018C187.457 565.804 144.575 588.319 106.904 584.27C79.8128 581.352 81.5951 508.644 78.9929 485.413C74.7154 447.427 66.4526 407.516 53.3278 372.526C42.0565 342.544 15.272 333.298 -9.36655 326.572C-24.8013 322.351 -40.9775 320.072 -55.9061 313.545C-73.1873 305.983 -77.5504 297.35 -79.8959 275.594Z" stroke="white" stroke-opacity="0.15"/>
<path fill-rule="evenodd" clip-rule="evenodd" d="M-61.1589 251.266C-64.491 207.386 -63.7418 155.496 -42.1576 117.538C-23.2421 84.29 10.4364 75.5363 34.3895 49.3448C53.0838 28.911 60.426 -4.40634 70.4796 -31.4291C82.7665 -64.4694 99.9839 -125.494 130.98 -137.927C159.813 -149.486 189.967 -75.6474 200.406 -53.6292C216.931 -18.7793 230.752 19.4388 250.795 51.6219C268.055 79.3287 291.18 94.6453 315.726 111.105C347.021 132.127 394.535 157.055 411.267 198.026C423.739 228.556 383.183 273.943 369.333 295.095C354.848 317.191 343.939 343.383 328.99 364.7C305.401 398.338 267.177 425.421 235.618 446.088C204.937 466.193 165.093 488.445 130.287 487.12C107.412 486.255 103.059 443.413 98.1787 422.486C91.1862 392.736 81.8889 366.076 61.9173 345.842C41.5889 325.244 17.6287 315.538 -7.55876 307.044C-20.4879 302.714 -35.2364 299.338 -46.8027 290.593C-59.582 281.077 -59.8745 268.133 -61.1589 251.266Z" stroke="white" stroke-opacity="0.15"/>
<path fill-rule="evenodd" clip-rule="evenodd" d="M-38.3292 225.974C-38.1443 188.064 -30.9966 147.639 -9.80249 118.397C7.84982 94.0397 35.4805 85.8977 52.3789 60.998C65.7639 41.285 72.5773 13.611 81.5386 -9.28123C92.4984 -37.3343 107.996 -86.3411 135.249 -96.0769C161.849 -105.554 185.376 -51.5762 195.575 -30.2176C210.51 1.10087 222.601 34.2976 237.671 65.5299C249.477 90.0333 263.915 105.826 283.139 121.619C305.706 140.169 337.191 160.717 349.246 191.407C357.937 213.627 336.9 249.133 329.261 268.708C324.14 281.856 319.454 295.21 316.879 309.461C314.873 320.558 314.674 330.828 308.864 340.357C294.234 364.326 262.158 367.454 240.395 375.355C211.491 385.84 180.824 397.756 150.576 400.03C131.985 401.452 122.497 380.679 111.886 366.067C99.3474 348.792 81.5955 336.368 66.0911 323.332C45.6295 306.101 23.3614 295.383 0.325188 284.406C-10.0656 279.452 -22.27 274.593 -30.321 264.745C-38.7275 254.535 -38.3932 239.656 -38.3292 225.974Z" stroke="white" stroke-opacity="0.15"/>
<path fill-rule="evenodd" clip-rule="evenodd" d="M-14.3514 203.468C-10.6778 171.63 0.770144 141.199 20.1064 118.691C34.9289 101.411 54.614 91.6823 66.5105 70.92C77.5954 51.5661 85.3199 29.5597 94.4755 8.86654C104.165 -13.0103 118.56 -49.5753 140.908 -55.5284C164.993 -61.9394 183.546 -25.0546 193.819 -4.61204C206.798 21.222 216.658 49.0173 228.263 75.7412C237.005 95.6598 248.157 113.877 261.347 129.785C275.18 146.556 293.939 162.618 300.938 185.678C307.124 206.104 295.548 230.814 293.505 251.525C291.319 273.652 295.15 296.894 283.032 315.894C258.043 355.077 195.329 347.811 159.475 348.649C124.099 349.513 95.6573 325.536 67.0302 302.726C48.1211 287.667 28.4289 274.914 9.04286 260.882C-10.7205 246.565 -17.5836 231.488 -14.3514 203.468Z" stroke="white" stroke-opacity="0.15"/>
<path fill-rule="evenodd" clip-rule="evenodd" d="M7.92623 185.245C18.7899 139.12 52.72 114.604 76.9762 79.7464C96.8228 51.2099 111.704 -7.88666 145.129 -15.7039C183.076 -24.5762 205.794 53.7263 218.987 83.9404C233.626 117.449 259.699 144.706 270.541 180.178C276.24 198.796 271.346 216.168 268.311 234.778C264.985 255.211 262.484 276.104 251.001 292.551C228.397 324.918 184.252 324.694 152.459 325.584C119.547 326.51 90.4328 304.329 64.2105 282.191C36.3996 258.748 -3.20098 232.547 7.92623 185.245Z" stroke="white" stroke-opacity="0.15"/>
<path fill-rule="evenodd" clip-rule="evenodd" d="M26.1216 172.737C38.3629 139.875 64.0868 113.158 84.9602 87.9368C102.382 66.9107 121.124 24.5835 147.688 21.5662C178.908 18.0074 197.83 63.2058 210.114 90.9197C222.205 118.152 239.627 146.906 246.321 176.795C253.303 207.93 234.711 249.862 216.981 271.894C197.205 296.461 164.851 305.539 137.09 304.559C108.022 303.562 81.3509 283.258 59.3367 262.197C35.8013 239.684 11.8856 210.887 26.1216 172.737Z" stroke="white" stroke-opacity="0.15"/>
<path fill-rule="evenodd" clip-rule="evenodd" d="M43.0052 166.55C54.6982 139.217 74.967 116.095 93.6557 95.4703C108.078 79.5474 129.359 52.4726 150.167 51.8095C173.057 51.0775 192.457 73.8035 201.557 97.0979C210.528 120.074 219.98 148.879 221.323 174.086C224.239 228.976 164.869 290.463 120.288 285.459C78.0195 280.714 19.6911 221.01 43.0052 166.55Z" stroke="white" stroke-opacity="0.15"/>
<path fill-rule="evenodd" clip-rule="evenodd" d="M58.6194 163.536C74.7505 127.923 113.933 77.1522 150.209 75.9465C191.846 74.5685 202.299 131.067 196.872 172.011C191.358 213.799 143.353 274.285 105.074 266.112C67.7151 258.137 39.5018 205.772 58.6194 163.536Z" stroke="white" stroke-opacity="0.15"/>
<path fill-rule="evenodd" clip-rule="evenodd" d="M75.1056 157.778C88.7633 127.96 117.908 90.7153 148.305 89.5879C184.524 88.2541 183.84 135.954 175.627 165.644C167.087 196.469 129.473 249.117 97.7593 240.804C66.921 232.689 62.0173 186.357 75.1056 157.778Z" stroke="white" stroke-opacity="0.15"/>
<path fill-rule="evenodd" clip-rule="evenodd" d="M89.4647 154.347C98.4797 133.07 121.042 106.179 142.491 105.318C168.708 104.284 163.612 142.118 156.838 160.379C148.787 182.107 121.799 219.863 99.1507 213.744C76.8523 207.721 82.0271 171.877 89.4647 154.347Z" stroke="white" stroke-opacity="0.15"/>
<path fill-rule="evenodd" clip-rule="evenodd" d="M1322.76 1370.02C1264.73 1412.7 1199.13 1447.94 1137.27 1483.76C1046.87 1536.09 955.132 1587.01 860.144 1626C809.216 1646.89 743.224 1677.02 688.578 1660.65C668.599 1654.66 650.379 1636.57 632.466 1624.81C607.764 1608.59 582.699 1593.18 557.677 1577.73C507.483 1546.77 457.133 1516.12 407.801 1483.17C384.047 1467.3 360.997 1447.31 336.267 1433.77C321.815 1425.85 304.521 1429.56 289.079 1430.06C253.309 1431.23 217.56 1433.44 181.811 1435.32C138.085 1437.61 94.2586 1440.06 50.4823 1439.15C30.7381 1438.74 -17.618 1442.99 -28.4873 1422.37C-34.335 1411.26 -20.5526 1391.24 -14.1635 1381.98C-2.4324 1364.95 11.051 1349.61 24.3562 1334.42C55.1264 1299.29 87.8054 1265.84 115.157 1226.61C129.21 1206.44 147.622 1181.8 138.448 1154.26C129.188 1126.45 113.148 1102.37 103.361 1074.65C92.0932 1042.76 87.4207 1009.57 82.1001 975.748C78.1612 950.752 68.9871 928.605 60.3615 905.56C50.8313 880.089 40.9592 854.402 34.3422 827.54C29.9688 809.797 22.9102 777.876 38.2098 766.643C59.9484 750.669 100.712 763.603 125.492 768.309C159.738 774.802 193.734 783.074 227.888 790.197C252.682 795.378 277.562 801.059 302.769 801.663C343.404 802.639 384.175 799.263 424.703 796.12C499.748 790.301 574.255 782.409 649.553 782.409C715.522 782.409 867.971 874.943 903.656 891.236C974.883 923.761 1048.01 954.594 1115.41 997.869C1133.64 1009.59 1161.71 1025.2 1171.3 1049.31C1177.22 1064.17 1174.5 1072.76 1188.46 1082.34C1207.5 1095.4 1231.91 1100.53 1252.99 1106.38C1286.94 1115.79 1321.16 1123.76 1355.27 1132.28C1424.26 1149.47 1492.78 1168.91 1561.49 1187.63C1582.26 1193.28 1607.39 1194.53 1627.19 1204.5C1639.95 1210.89 1638.63 1218.95 1628.75 1228.67C1611.42 1245.73 1587.13 1255.21 1566.66 1264.94C1536.67 1279.19 1506.18 1291.91 1475.68 1304.45C1445.18 1316.98 1414.53 1329.13 1384.01 1341.7C1363.86 1349.97 1340.87 1356.69 1322.76 1370.02Z" stroke="white" stroke-opacity="0.15"/>
<path fill-rule="evenodd" clip-rule="evenodd" d="M1275.01 1360.63C1213.62 1403.4 1145.49 1437.48 1079.8 1470.72C995.734 1513.3 909.766 1553.2 821.19 1579.82C769.183 1595.43 707.822 1612.68 654.682 1594.77C635.724 1588.38 621.561 1574.02 605.311 1561.34C586.788 1546.88 567.552 1533.62 548.317 1520.57C508.72 1493.72 468.706 1467.78 428.273 1442.75C406.858 1429.45 383.284 1411.62 359.09 1407.01C339.854 1403.33 318.004 1408.65 298.683 1410.2C263.888 1412.98 229.101 1415.85 194.291 1418.29C154.125 1421.1 113.844 1423.69 73.5924 1423.25C51.1581 1422.99 12.6443 1427.14 -3.2214 1409.56C-17.0638 1394.22 33.3331 1338.74 42.1957 1328.2C69.8734 1295.29 98.9832 1263.96 124.744 1228.76C139.969 1208.01 158.506 1182.77 164.925 1155.27C170.39 1131.83 159.846 1105.12 153.619 1083.45C145.832 1056.31 139.549 1028.17 130.501 1001.6C122.443 977.926 109.62 956.837 98.3562 935.315C85.9671 911.64 73.4213 887.577 64.2239 861.749C58.5886 845.857 49.263 819.242 60.4623 804.093C73.3999 786.627 113.282 798.041 129.674 800.531C162.93 805.65 195.93 813.259 228.958 820.072C283.815 831.382 336.114 841.274 391.975 838.905C464.721 835.809 537.395 828.529 610.127 824.499C636.985 822.995 664.271 819.969 691.151 821.603C706.561 822.545 718.294 828.252 727.257 841.127C739.496 858.697 767.687 868.425 787.293 878.507C817.863 894.217 848.818 908.83 879.687 923.633C947.453 956.145 1016.52 987.48 1080.79 1029.53C1101.12 1042.83 1124.41 1057.66 1139.44 1079.63C1147.84 1091.88 1145.72 1103.68 1150.84 1116.7C1157.63 1133.83 1179.92 1141.56 1193.25 1147.17C1218.98 1157.99 1245.76 1165.25 1272.33 1172.04C1332.46 1187.42 1392.73 1197.52 1453.84 1204.97C1468.16 1206.7 1524.55 1212.69 1494.93 1241.57C1462.21 1273.49 1414.96 1289.13 1376.44 1307.11C1341.74 1323.28 1307.01 1338.33 1275.01 1360.63Z" stroke="white" stroke-opacity="0.15"/>
<path fill-rule="evenodd" clip-rule="evenodd" d="M1190.18 1352.72C1132.48 1390.35 1068.56 1418.42 1006.42 1445.28C931.015 1477.87 853.72 1506.92 774.634 1523.19C724.953 1533.41 670.18 1541.25 620.834 1524.28C587.135 1512.7 561.068 1481.38 531.471 1459.83C501.873 1438.28 471.078 1418.05 439.362 1401.19C419.678 1390.73 398.503 1380.19 376.601 1381.57C323.347 1384.92 270.157 1392.9 216.846 1396.78C181.579 1399.37 146.24 1401.5 110.866 1400.86C89.5342 1400.48 60.229 1402.04 41.3436 1388.43C20.4685 1373.38 131.62 1244.91 142.125 1230.45C168.463 1194.19 200.357 1146.07 195.265 1094.5C190.394 1045.21 169.283 1008.4 145.406 969.778C131.855 947.807 88.4001 889.111 104.504 860.535C113.704 844.202 144.029 849.856 158.436 850.97C186.828 853.163 215.063 857.876 243.305 861.968C284.485 867.899 326.799 877.059 368.157 879.744C396.956 881.609 425.925 879.114 454.774 879.062C496.139 878.993 537.504 879.373 578.87 879.822C613.602 880.201 648.627 879.822 683.238 883.862C704.755 886.348 721.087 891.934 736.521 907.715C749.95 921.442 770.212 929.479 787.329 938.207C815.599 952.616 844.241 965.971 872.79 979.542C932.563 1007.96 993.02 1035.79 1050.23 1071.3C1076.35 1087.51 1120.26 1110.2 1126.39 1149.48C1128.6 1163.65 1130.22 1169.77 1141.64 1177.83C1157.83 1189.26 1177.23 1194.41 1195.4 1198.89C1237.77 1209.34 1281.36 1207.78 1323.65 1218.1C1340.87 1222.36 1363.36 1231.54 1343.7 1252.57C1320.75 1277.17 1287.35 1290.69 1259.87 1305.88C1246.15 1313.46 1232.01 1320.56 1218.98 1329.81C1208.97 1336.94 1200.41 1346.09 1190.18 1352.72Z" stroke="white" stroke-opacity="0.15"/>
<path fill-rule="evenodd" clip-rule="evenodd" d="M1080.89 1340.97C1027.59 1371.53 969.699 1393.75 912.847 1413.79C849.701 1436.01 785.032 1454.42 719.507 1462.25C674.263 1467.67 626.056 1469.28 582.143 1452.67C554.372 1442.16 535.545 1420.07 511.648 1401.54C475.582 1373.54 436.561 1351.35 393.232 1356.75C344.655 1362.79 295.918 1367.32 247.023 1370.35C217.53 1372.17 187.922 1373.54 158.392 1372.27C139.722 1371.47 115.669 1370.13 99.4263 1359.88C77.6941 1346.14 159.325 1241.64 169.501 1226.41C194.736 1188.64 213.236 1149 224.045 1102.2C232.86 1064.01 214.852 1033.99 196.274 1005.43C184.725 987.688 147.405 943.07 159.09 920.034C165.499 907.33 186.619 907.987 197.962 907.338C219.58 906.11 241.291 907.39 262.909 907.953C294.831 908.818 328.811 902.873 360.462 907.659C430.608 918.251 500.576 927.424 571.156 934.684C610.063 938.682 649.205 942.317 687.763 950.027C701.606 952.796 715.904 955.73 729.021 961.995C737.459 966.019 742.059 972.873 749.179 978.498C783.13 1005.27 827.449 1019.05 865.687 1036.21C916.522 1059.02 967.627 1081.48 1017.11 1108.42C1043.13 1122.6 1079.49 1138.89 1097.39 1167.82C1102.81 1176.56 1100.5 1183.55 1103.9 1191.95C1107.82 1201.64 1119.72 1204.53 1127.4 1207.23C1144.84 1213.37 1217.83 1222.65 1184.19 1258.64C1168.14 1275.78 1147.69 1286.78 1129.6 1300.25C1123.05 1305.13 1116.66 1310.04 1111.2 1316.62C1102.06 1327.67 1093.06 1333.97 1080.89 1340.97Z" stroke="white" stroke-opacity="0.15"/>
<path fill-rule="evenodd" clip-rule="evenodd" d="M964.457 1327.73C859.226 1377.18 735.899 1410.87 621.17 1404.35C583.018 1402.17 541.968 1394.9 508.896 1370.02C489.395 1355.32 473.812 1338.73 450.387 1333.42C433.476 1329.59 415.266 1333.94 398.256 1335.51C373.618 1337.8 348.965 1339.84 324.291 1341.49C293.702 1343.5 263.013 1345.06 232.367 1344.23C210.469 1343.63 180.229 1344.31 161.207 1330.04C138.495 1313.03 196.305 1233.22 204.439 1219C224.154 1184.53 237.975 1151.13 242.97 1109.59C244.44 1097.49 249.392 1085.08 248.75 1072.88C248.079 1060.43 241.75 1049.34 235.906 1039.54C228.264 1026.7 201.749 996.255 209.341 980.598C213.537 971.953 229.285 970.864 237.447 969.031C252.76 965.573 268.293 963.714 283.699 960.965C309.835 956.28 335.786 941.021 362.016 941.453C432.548 942.594 504.101 969.118 573.221 983.685C614.313 992.373 655.684 1000.26 696.276 1012.02C709.12 1015.75 722.349 1019.6 734.557 1025.92C743.077 1030.33 748.55 1038.19 756.441 1043.13C786.702 1062.09 821.501 1073.59 853.995 1086.35C896.179 1102.95 938.506 1119.05 980.397 1136.72C1006.66 1147.79 1040.42 1157.54 1063.05 1178.08C1079.57 1193.08 1068.28 1197.56 1059.56 1211.53C1055.1 1218.66 1056.13 1225.68 1054.2 1233.74C1051.44 1245.26 1043.63 1253.55 1036.31 1261C1026.21 1271.3 1012.76 1279.78 1004.51 1292.4C1001.6 1296.84 1001.73 1302.36 999.377 1306.23C992.528 1317.51 974.354 1323.08 964.457 1327.73Z" stroke="white" stroke-opacity="0.15"/>
<path fill-rule="evenodd" clip-rule="evenodd" d="M852.574 1310.12C767.167 1341.21 672.137 1358.91 581.858 1350.69C550.447 1347.83 518.844 1341.18 489.585 1326.57C476.273 1319.95 466.28 1312.56 451.693 1312.17C417.846 1311.25 383.892 1314.46 350.053 1315.23C325.836 1315.78 301.498 1315.98 277.338 1313.62C261.184 1312.04 239.339 1310.16 226.105 1298.15C206.874 1280.65 241.59 1221.18 248.656 1204.75C260.365 1177.5 271.982 1147.2 267.338 1115.67C265.914 1106.03 263.392 1097.51 263.064 1087.68C262.751 1079.23 263.627 1071.43 261.156 1063.35C258.1 1053.34 244.51 1037.8 249.183 1028.58C252.366 1022.28 261.811 1021.99 268.093 1019.98C278.282 1016.71 288.231 1012.42 297.837 1007.16C307.951 1001.59 316.562 992.985 327.04 988.384C344.049 980.929 363.087 980.229 380.965 980.262C452.298 980.402 524.535 997.464 594.059 1015.31C630.263 1024.59 666.667 1034.5 701.853 1048.58C712.537 1052.86 724.645 1057.16 734.04 1065.07C739.902 1069.99 743.876 1076.15 750.536 1079.85C807.424 1111.45 873.194 1123.19 933.587 1146.01C949.306 1151.95 1036.42 1181.97 990.874 1210.21C963.203 1227.36 933.964 1235.16 908.715 1258.63C901.022 1265.77 895.894 1271.68 892.888 1282.56C890.908 1289.81 895.673 1286.14 889.021 1293.71C880.951 1302.82 862.525 1306.49 852.574 1310.12Z" stroke="white" stroke-opacity="0.15"/>
<path fill-rule="evenodd" clip-rule="evenodd" d="M763.77 1291.73C663.778 1317.11 557.886 1318.32 456.315 1295.82C430.71 1290.15 404.062 1291.51 378.142 1290.07C352.958 1288.69 308.183 1291.56 289.892 1268.08C276.628 1251.06 291.02 1214.89 295.998 1195.85C302.341 1171.59 307.883 1146.54 297.47 1122.98C291.37 1109.18 283.014 1096.05 276.471 1082.38C273.343 1075.86 266.901 1065.85 269.586 1059.67C274.029 1049.47 294.813 1045.18 304.898 1040.37C337.131 1024.99 371.264 1021.07 405.726 1021.18C469.378 1021.38 533.359 1031.93 595.797 1046.25C624.524 1052.83 653.65 1059.86 681.355 1071.31C697.033 1077.79 708.596 1090.28 723.566 1097.69C771.77 1121.56 823.559 1134.31 872.591 1156.13C886.782 1162.45 939.793 1183.49 913.088 1208.3C887.232 1232.31 849.521 1229.46 822.637 1252.05C819.595 1254.64 815.831 1257.73 814.067 1261.92C813.024 1264.42 814.859 1269.18 814.067 1270.6C805.81 1286.06 776.462 1288.52 763.77 1291.73Z" stroke="white" stroke-opacity="0.15"/>
<path fill-rule="evenodd" clip-rule="evenodd" d="M698.987 1274.96C647.688 1283.49 595.261 1285.61 543.098 1286.14C514.585 1286.44 483.259 1288.64 455.36 1279.89C438.223 1274.49 421.67 1269.78 404.004 1266.38C384.996 1262.72 354.391 1260.06 342.816 1240.23C334.168 1225.41 340.095 1194.96 340.409 1176.94C340.745 1157.19 337.403 1142.53 325.899 1128.39C318.666 1119.49 285.483 1087.17 289.318 1077.85C292.966 1068.97 316.088 1067.61 326.085 1065.31C357.683 1057.99 389.702 1055.44 421.842 1055.84C471.62 1056.45 521.583 1062.6 570.583 1073.18C590.841 1077.57 611.777 1082.12 631.129 1090.91C644.16 1096.83 655.029 1107.33 667.975 1113.45C705.049 1131 744.252 1142.92 781.455 1160.8C793.394 1166.55 832.296 1181.85 822.971 1205.43C815.194 1225.12 788.745 1231.11 775.749 1244.31C753.642 1266.81 727.178 1270.28 698.987 1274.96Z" stroke="white" stroke-opacity="0.15"/>
</g>
</svg>
