<svg width="21" height="21" viewBox="0 0 21 21" fill="none" xmlns="http://www.w3.org/2000/svg">
<path d="M3.2858 7.38509C2.34744 6.44673 2.34744 4.92534 3.2858 3.98698C4.22417 3.04861 5.74555 3.04861 6.68392 3.98698L16.8783 14.1813C17.8166 15.1197 17.8166 16.6411 16.8783 17.5794C15.9399 18.5178 14.4185 18.5178 13.4801 17.5794L3.2858 7.38509Z" stroke="#DC6803"/>
<path d="M5.08203 9.11621L8.41536 5.78288" stroke="#DC6803" stroke-linecap="round"/>
<path d="M13.4987 2.70619C13.6329 2.36487 14.1141 2.36486 14.2483 2.70619L14.6069 3.61892C14.6479 3.72313 14.73 3.80562 14.8339 3.84672L15.7432 4.2067C16.0833 4.34131 16.0833 4.82437 15.7432 4.95898L14.8339 5.31896C14.73 5.36006 14.6479 5.44255 14.6069 5.54675L14.2483 6.45949C14.1141 6.80081 13.6329 6.80081 13.4987 6.45949L13.1401 5.54675C13.0991 5.44255 13.017 5.36006 12.9131 5.31896L12.0038 4.95898C11.6637 4.82437 11.6637 4.34131 12.0038 4.2067L12.9131 3.84672C13.017 3.80562 13.0991 3.72313 13.1401 3.61892L13.4987 2.70619Z" fill="#FFE600" stroke="#DC6803"/>
<path d="M16.7214 8.39076C16.8555 8.04944 17.3368 8.04944 17.4709 8.39076L17.6016 8.72355C17.6426 8.82775 17.7248 8.91024 17.8286 8.95134L18.1602 9.08259C18.5002 9.2172 18.5002 9.70026 18.1602 9.83487L17.8286 9.96612C17.7248 10.0072 17.6426 10.0897 17.6016 10.1939L17.4709 10.5267C17.3368 10.868 16.8555 10.868 16.7214 10.5267L16.5906 10.1939C16.5497 10.0897 16.4675 10.0072 16.3636 9.96612L16.0321 9.83487C15.692 9.70026 15.692 9.2172 16.0321 9.08259L16.3636 8.95134C16.4675 8.91024 16.5497 8.82775 16.5906 8.72355L16.7214 8.39076Z" fill="#FFE600" stroke="#DC6803"/>
<path d="M4.35968 13.5392C4.49379 13.1979 4.97507 13.1979 5.10919 13.5392L5.23995 13.872C5.2809 13.9762 5.36309 14.0587 5.46691 14.0998L5.79847 14.231C6.13853 14.3656 6.13853 14.8487 5.79847 14.9833L5.46691 15.1146C5.36309 15.1557 5.2809 15.2381 5.23995 15.3424L5.10919 15.6751C4.97507 16.0165 4.49379 16.0165 4.35968 15.6751L4.22891 15.3424C4.18796 15.2381 4.10578 15.1557 4.00195 15.1146L3.67039 14.9833C3.33033 14.8487 3.33033 14.3656 3.67039 14.231L4.00195 14.0998C4.10578 14.0587 4.18796 13.9762 4.22891 13.872L4.35968 13.5392Z" fill="#FFE600" stroke="#DC6803"/>
</svg>
