<svg width="21" height="21" viewBox="0 0 21 21" fill="none" xmlns="http://www.w3.org/2000/svg">
<path d="M3.28629 7.38509C2.34793 6.44673 2.34793 4.92534 3.28629 3.98698C4.22466 3.04861 5.74604 3.04861 6.68441 3.98698L16.8787 14.1813C17.8171 15.1197 17.8171 16.6411 16.8787 17.5794C15.9404 18.5178 14.419 18.5178 13.4806 17.5794L3.28629 7.38509Z" stroke="#FFE500"/>
<path d="M5.08252 9.1167L8.41585 5.78337" stroke="#FFE500" stroke-linecap="round"/>
<path d="M13.4992 2.7057C13.6333 2.36438 14.1146 2.36438 14.2487 2.7057L14.6074 3.61844C14.6483 3.72264 14.7305 3.80513 14.8343 3.84623L15.7437 4.20621C16.0838 4.34082 16.0838 4.82388 15.7437 4.95849L14.8343 5.31847C14.7305 5.35957 14.6483 5.44206 14.6074 5.54626L14.2487 6.459C14.1146 6.80032 13.6333 6.80032 13.4992 6.459L13.1406 5.54627C13.0996 5.44206 13.0174 5.35957 12.9136 5.31847L12.0042 4.95849C11.6642 4.82388 11.6642 4.34082 12.0042 4.20621L12.9136 3.84623C13.0174 3.80513 13.0996 3.72264 13.1406 3.61844L13.4992 2.7057Z" fill="#FFE600" stroke="#FFE500"/>
<path d="M16.7218 8.39124C16.8559 8.04992 17.3372 8.04992 17.4713 8.39124L17.6021 8.72403C17.6431 8.82824 17.7252 8.91073 17.8291 8.95183L18.1606 9.08308C18.5007 9.21769 18.5007 9.70075 18.1606 9.83536L17.8291 9.96661C17.7252 10.0077 17.6431 10.0902 17.6021 10.1944L17.4713 10.5272C17.3372 10.8685 16.8559 10.8685 16.7218 10.5272L16.5911 10.1944C16.5501 10.0902 16.4679 10.0077 16.3641 9.96661L16.0325 9.83536C15.6925 9.70075 15.6925 9.21769 16.0325 9.08308L16.3641 8.95183C16.4679 8.91073 16.5501 8.82824 16.5911 8.72403L16.7218 8.39124Z" fill="#FFE600" stroke="#FFE500"/>
<path d="M4.36019 13.5392C4.49431 13.1979 4.97559 13.1979 5.10971 13.5392L5.24047 13.872C5.28142 13.9762 5.3636 14.0587 5.46743 14.0998L5.79899 14.231C6.13905 14.3656 6.13905 14.8487 5.79899 14.9833L5.46743 15.1146C5.3636 15.1557 5.28142 15.2381 5.24047 15.3424L5.10971 15.6751C4.97559 16.0165 4.49431 16.0165 4.36019 15.6751L4.22943 15.3424C4.18848 15.2381 4.1063 15.1557 4.00247 15.1146L3.67091 14.9833C3.33085 14.8487 3.33085 14.3656 3.67091 14.231L4.00247 14.0998C4.1063 14.0587 4.18848 13.9762 4.22943 13.872L4.36019 13.5392Z" fill="#FFE600" stroke="#FFE500"/>
</svg>
