<svg width="56" height="56" viewBox="0 0 56 56" fill="none" xmlns="http://www.w3.org/2000/svg">
<rect x="4" y="4" width="48" height="48" rx="24" fill="#EBF2FF"/>
<rect x="4" y="4" width="48" height="48" rx="24" stroke="#F7FAFF" stroke-width="8"/>
<path d="M25 21.9141C25 23.5709 26.3431 24.9141 28 24.9141C29.6569 24.9141 31 23.5709 31 21.9141C31 20.2572 29.6569 18.9141 28 18.9141C26.3431 18.9141 25 20.2572 25 21.9141Z" fill="#5A78AD"/>
<path d="M18.5 33.9141C18.5 35.5709 19.8431 36.9141 21.5 36.9141C23.1569 36.9141 24.5 35.5709 24.5 33.9141C24.5 32.2572 23.1569 30.9141 21.5 30.9141C19.8431 30.9141 18.5 32.2572 18.5 33.9141Z" fill="#5A78AD"/>
<path d="M34.5 36.9141C32.8431 36.9141 31.5 35.5709 31.5 33.9141C31.5 32.2572 32.8431 30.9141 34.5 30.9141C36.1569 30.9141 37.5 32.2572 37.5 33.9141C37.5 35.5709 36.1569 36.9141 34.5 36.9141Z" fill="#5A78AD"/>
<path d="M23.2047 23.4764C23.5152 23.2023 23.5448 22.7283 23.2707 22.4178C22.9966 22.1072 22.5226 22.0777 22.2121 22.3518C20.3968 23.954 19.25 26.3006 19.25 28.9141C19.25 29.3283 19.5858 29.6641 20 29.6641C20.4142 29.6641 20.75 29.3283 20.75 28.9141C20.75 26.7488 21.6983 24.8059 23.2047 23.4764Z" fill="#5A78AD"/>
<path d="M33.7879 22.3518C33.4774 22.0777 33.0034 22.1072 32.7293 22.4178C32.4552 22.7283 32.4848 23.2023 32.7953 23.4764C34.3017 24.8059 35.25 26.7488 35.25 28.9141C35.25 29.3283 35.5858 29.6641 36 29.6641C36.4142 29.6641 36.75 29.3283 36.75 28.9141C36.75 26.3006 35.6032 23.954 33.7879 22.3518Z" fill="#5A78AD"/>
<path d="M26.1869 35.9357C25.7858 35.8325 25.3769 36.074 25.2737 36.4751C25.1704 36.8762 25.4119 37.2851 25.8131 37.3884C26.5129 37.5685 27.2458 37.6641 28 37.6641C28.7542 37.6641 29.4871 37.5685 30.1869 37.3884C30.5881 37.2851 30.8296 36.8762 30.7263 36.4751C30.6231 36.074 30.2142 35.8325 29.8131 35.9357C29.2344 36.0847 28.627 36.1641 28 36.1641C27.373 36.1641 26.7656 36.0847 26.1869 35.9357Z" fill="#5A78AD"/>
</svg>
