<svg width="56" height="56" viewBox="0 0 56 56" fill="none" xmlns="http://www.w3.org/2000/svg">
<rect x="4" y="4" width="48" height="48" rx="24" fill="#EBF2FF"/>
<rect x="4" y="4" width="48" height="48" rx="24" stroke="#F7FAFF" stroke-width="8"/>
<path d="M30.6646 18.2434C31.0351 18.0582 31.4856 18.2083 31.6708 18.5788L33.872 22.9811C35.2251 23.0851 36.0742 23.3505 36.6221 24.0282C37.0575 24.5668 37.1984 25.2368 37.1466 26.1642H18.8535C18.8017 25.2368 18.9426 24.5668 19.378 24.0282C19.9259 23.3505 20.7749 23.0851 22.128 22.9811L24.3292 18.5788C24.5144 18.2083 24.9649 18.0582 25.3354 18.2434C25.7059 18.4286 25.8561 18.8792 25.6708 19.2496L23.8359 22.9195C24.3191 22.9142 24.8464 22.9142 25.422 22.9142H30.5781C31.1537 22.9142 31.6809 22.9142 32.1641 22.9195L30.3292 19.2496C30.1439 18.8792 30.2941 18.4286 30.6646 18.2434Z" fill="#5A78AD"/>
<path fill-rule="evenodd" clip-rule="evenodd" d="M19.5551 30.1714C19.3481 29.2054 19.171 28.3786 19.0451 27.6642H36.9549C36.8291 28.3785 36.6519 29.2054 36.4449 30.1713L36.0164 32.1714C35.5294 34.4439 35.2859 35.5802 34.4608 36.2472C33.6357 36.9142 32.4737 36.9142 30.1495 36.9142H25.8505C23.5264 36.9142 22.3643 36.9142 21.5392 36.2472C20.7142 35.5802 20.4707 34.4439 19.9837 32.1714L19.5551 30.1714ZM26 29.1642C25.5858 29.1642 25.25 29.5 25.25 29.9142C25.25 30.3284 25.5858 30.6642 26 30.6642H30C30.4142 30.6642 30.75 30.3284 30.75 29.9142C30.75 29.5 30.4142 29.1642 30 29.1642H26Z" fill="#5A78AD"/>
</svg>
