<svg width="1728" height="1117" viewBox="0 0 1728 1117" fill="none" xmlns="http://www.w3.org/2000/svg">
<mask id="mask0_547_9559" style="mask-type:alpha" maskUnits="userSpaceOnUse" x="0" y="0" width="1728" height="1117">
<rect width="1728" height="1117" fill="#D9D9D9"/>
</mask>
<g mask="url(#mask0_547_9559)">
<path d="M88.028 810.913C-93.3035 641.845 -117.779 895.827 -107.351 1043.95C-24.8104 1299.67 247.149 1315.58 372.811 1291.57C444.716 1283.19 585.556 1216.36 573.669 1016.15C558.811 765.877 314.692 1022.25 88.028 810.913Z" fill="#EFF1F7"/>
<path d="M67.028 840.913C-114.303 671.845 -138.779 925.827 -128.351 1073.95C-45.8104 1329.67 226.149 1345.58 351.811 1321.57C423.716 1313.19 564.556 1246.36 552.669 1046.15C537.811 795.877 293.692 1052.25 67.028 840.913Z" fill="#5A78AD" fill-opacity="0.3"/>
<path d="M50.028 869.913C-131.303 700.845 -155.779 954.827 -145.351 1102.95C-62.8104 1358.67 209.149 1374.58 334.811 1350.57C406.716 1342.19 547.556 1275.36 535.669 1075.15C520.811 824.877 276.692 1081.25 50.028 869.913Z" fill="#5A78AD"/>
<path d="M1620.18 307.893C1801.51 476.961 1825.98 222.979 1815.56 74.8543C1733.02 -180.863 1461.06 -196.775 1335.39 -172.766C1263.49 -164.381 1122.65 -97.5586 1134.54 102.658C1149.39 352.929 1393.51 96.5583 1620.18 307.893Z" fill="#EFF1F7"/>
<path d="M1641.18 277.893C1822.51 446.961 1846.98 192.979 1836.56 44.8543C1754.02 -210.863 1482.06 -226.775 1356.39 -202.766C1284.49 -194.381 1143.65 -127.559 1155.54 72.6581C1170.39 322.929 1414.51 66.5583 1641.18 277.893Z" fill="#5A78AD" fill-opacity="0.3"/>
<path d="M1658.18 248.893C1839.51 417.961 1863.98 163.979 1853.56 15.8543C1771.02 -239.863 1499.06 -255.775 1373.39 -231.766C1301.49 -223.381 1160.65 -156.559 1172.54 43.6581C1187.39 293.929 1431.51 37.5583 1658.18 248.893Z" fill="#5A78AD"/>
<path d="M-11.0185 271.613C-11.0185 271.613 -135.548 229.607 -164.85 137.815C-318.654 -246.76 -76.7658 -242.437 63.4039 -192.203C267.238 -42.8035 -56.9031 23.3766 44.2906 168.514C125.246 284.624 41.1491 285.626 -11.0185 271.613Z" stroke="#EFF1F7"/>
<path d="M9.10552 297.036C9.10552 297.036 -115.424 255.031 -144.726 163.238C-298.53 -221.337 -56.6418 -217.013 83.5279 -166.78C287.362 -17.3801 -36.7791 48.7999 64.4146 193.938C145.37 310.048 61.2731 311.049 9.10552 297.036Z" stroke="#EFF1F7"/>
<path d="M29.2297 322.46C29.2297 322.46 -95.2997 280.454 -124.602 188.662C-278.406 -195.913 -36.5177 -191.59 103.652 -141.356C307.486 8.0437 -16.655 74.2238 84.5388 219.361C165.494 335.472 81.3973 336.473 29.2297 322.46Z" stroke="#EFF1F7"/>
<path d="M49.3538 347.883C49.3538 347.883 -75.1756 305.877 -104.478 214.084C-258.282 -170.49 -16.3935 -166.167 123.776 -115.934C327.61 33.4661 3.46917 99.6461 104.663 244.784C185.618 360.894 101.521 361.896 49.3538 347.883Z" stroke="#EFF1F7"/>
<path d="M69.4779 373.306C69.4779 373.306 -55.0515 331.301 -84.3534 239.508C-238.158 -145.067 3.73057 -140.743 143.9 -90.51C347.734 58.8899 23.5933 125.07 124.787 270.208C205.742 386.318 121.646 387.319 69.4779 373.306Z" stroke="#EFF1F7"/>
<path d="M89.602 398.73C89.602 398.73 -34.9274 356.724 -64.2293 264.932C-218.034 -119.643 23.8547 -115.32 164.024 -65.0862C367.858 84.3137 43.7173 150.494 144.911 295.631C225.866 411.742 141.77 412.743 89.602 398.73Z" stroke="#EFF1F7"/>
<path d="M109.726 424.152C109.726 424.152 -14.8032 382.146 -44.1052 290.354C-197.91 -94.2209 43.9788 -89.8977 184.149 -39.6643C387.982 109.736 63.8415 175.916 165.035 321.053C245.99 437.163 161.894 438.165 109.726 424.152Z" stroke="#EFF1F7"/>
<path d="M129.85 449.576C129.85 449.576 5.32084 407.57 -23.9811 315.778C-177.785 -68.7971 64.1029 -64.4739 204.273 -14.2405C408.106 135.159 83.9656 201.339 185.159 346.477C266.114 462.587 182.018 463.589 129.85 449.576Z" stroke="#EFF1F7"/>
<path d="M1725.02 921.387C1725.02 921.387 1849.55 963.393 1878.85 1055.19C2032.65 1439.76 1790.77 1435.44 1650.6 1385.2C1446.76 1235.8 1770.9 1169.62 1669.71 1024.49C1588.75 908.376 1672.85 907.374 1725.02 921.387Z" stroke="#EFF1F7"/>
<path d="M1704.89 895.964C1704.89 895.964 1829.42 937.969 1858.73 1029.76C2012.53 1414.34 1770.64 1410.01 1630.47 1359.78C1426.64 1210.38 1750.78 1144.2 1649.59 999.062C1568.63 882.952 1652.73 881.951 1704.89 895.964Z" stroke="#EFF1F7"/>
<path d="M1684.77 870.54C1684.77 870.54 1809.3 912.546 1838.6 1004.34C1992.41 1388.91 1750.52 1384.59 1610.35 1334.36C1406.51 1184.96 1730.65 1118.78 1629.46 973.639C1548.51 857.528 1632.6 856.527 1684.77 870.54Z" stroke="#EFF1F7"/>
<path d="M1664.65 845.117C1664.65 845.117 1789.18 887.123 1818.48 978.916C1972.28 1363.49 1730.39 1359.17 1590.22 1308.93C1386.39 1159.53 1710.53 1093.35 1609.34 948.216C1528.38 832.106 1612.48 831.104 1664.65 845.117Z" stroke="#EFF1F7"/>
<path d="M1644.52 819.694C1644.52 819.694 1769.05 861.699 1798.35 953.492C1952.16 1338.07 1710.27 1333.74 1570.1 1283.51C1366.27 1134.11 1690.41 1067.93 1589.21 922.792C1508.26 806.682 1592.35 805.681 1644.52 819.694Z" stroke="#EFF1F7"/>
<path d="M1624.4 794.27C1624.4 794.27 1748.93 836.276 1778.23 928.068C1932.03 1312.64 1690.15 1308.32 1549.98 1258.09C1346.14 1108.69 1670.28 1042.51 1569.09 897.369C1488.13 781.258 1572.23 780.257 1624.4 794.27Z" stroke="#EFF1F7"/>
<path d="M1604.27 768.848C1604.27 768.848 1728.8 810.854 1758.11 902.646C1911.91 1287.22 1670.02 1282.9 1529.85 1232.66C1326.02 1083.26 1650.16 1017.08 1548.96 871.947C1468.01 755.837 1552.11 754.835 1604.27 768.848Z" stroke="#EFF1F7"/>
<path d="M1584.15 743.424C1584.15 743.424 1708.68 785.43 1737.98 877.222C1891.79 1261.8 1649.9 1257.47 1509.73 1207.24C1305.89 1057.84 1630.03 991.661 1528.84 846.523C1447.89 730.413 1531.98 729.411 1584.15 743.424Z" stroke="#EFF1F7"/>
</g>
</svg>
