<svg width="390" height="844" viewBox="0 0 390 844" fill="none" xmlns="http://www.w3.org/2000/svg">
<mask id="mask0_1234_8549" style="mask-type:alpha" maskUnits="userSpaceOnUse" x="0" y="0" width="390" height="844">
<rect width="390" height="844" fill="#D9D9D9"/>
</mask>
<g mask="url(#mask0_1234_8549)">
<path d="M345.895 109.086C418.642 176.913 428.461 75.0196 424.278 15.5946C391.164 -86.9947 282.059 -93.3781 231.645 -83.7462C202.798 -80.3825 146.296 -53.5744 151.065 26.749C157.025 127.153 254.962 24.3018 345.895 109.086Z" fill="#EFF1F7"/>
<path d="M354.32 97.0501C427.067 164.877 436.886 62.9839 432.702 3.55894C399.589 -99.0304 290.484 -105.414 240.07 -95.7818C211.223 -92.4182 154.721 -65.61 159.489 14.7133C165.45 115.118 263.386 12.2662 354.32 97.0501Z" fill="#5A78AD" fill-opacity="0.3"/>
<path d="M361.14 85.4158C433.887 153.243 443.706 51.3497 439.523 -8.07534C406.409 -110.665 297.304 -117.048 246.89 -107.416C218.043 -104.052 161.541 -77.2443 166.31 3.07906C172.27 103.483 270.207 0.631922 361.14 85.4158Z" fill="#5A78AD"/>
<path d="M39.773 730.449C-32.9739 662.622 -42.7931 764.515 -38.6094 823.94C-5.49574 926.529 103.609 932.913 154.023 923.281C182.87 919.917 239.372 893.109 234.604 812.786C228.643 712.381 130.707 815.233 39.773 730.449Z" fill="#EFF1F7"/>
<path d="M31.3482 742.485C-41.3987 674.657 -51.2179 776.551 -47.0342 835.976C-13.9205 938.565 95.1846 944.948 145.598 935.316C174.445 931.953 230.947 905.145 226.179 824.821C220.218 724.417 122.282 827.268 31.3482 742.485Z" fill="#5A78AD" fill-opacity="0.3"/>
<path d="M24.5281 754.119C-48.2189 686.292 -58.0381 788.185 -53.8543 847.61C-20.7407 950.199 88.3644 956.583 138.778 946.951C167.625 943.587 224.127 916.779 219.359 836.456C213.398 736.051 115.462 838.903 24.5281 754.119Z" fill="#5A78AD"/>
</g>
</svg>
