<svg width="60" height="60" viewBox="0 0 60 60" fill="none" xmlns="http://www.w3.org/2000/svg">
<path d="M51.6643 39.4234H8.33633C6.30966 39.4234 4.66699 37.7807 4.66699 35.7541V13.1107C4.66699 11.0841 6.30966 9.44141 8.33633 9.44141H51.6637C53.6903 9.44141 55.333 11.0841 55.333 13.1107V35.7534C55.3337 37.7807 53.691 39.4234 51.6643 39.4234Z" fill="#5A78AD" fill-opacity="0.22"/>
<path d="M55.669 27.5355H44.5296C44.237 27.5355 43.9776 27.3441 43.8923 27.0635L40.2256 15.0775H36.8483C36.4796 15.0775 36.1816 14.7788 36.1816 14.4108C36.1816 14.0428 36.4796 13.7441 36.8483 13.7441H40.7196C41.0123 13.7441 41.2716 13.9355 41.357 14.2161L45.0236 26.2021H55.2263L58.3296 18.8148H48.091C47.7223 18.8148 47.4243 18.5161 47.4243 18.1481C47.4243 17.7801 47.7223 17.4815 48.091 17.4815H59.333C59.5563 17.4815 59.7643 17.5928 59.8883 17.7788C60.0123 17.9648 60.0343 18.2001 59.9476 18.4061L56.2836 27.1268C56.1796 27.3748 55.937 27.5355 55.669 27.5355Z" fill="#5A78AD"/>
<path d="M44.3829 33.5969C43.1236 33.5969 42.0996 32.5729 42.0996 31.3136C42.0996 30.0543 43.1236 29.0303 44.3829 29.0303C45.6423 29.0303 46.6663 30.0549 46.6663 31.3136C46.6663 32.5723 45.6423 33.5969 44.3829 33.5969ZM44.3829 30.3636C43.8596 30.3636 43.4329 30.7896 43.4329 31.3136C43.4329 31.8369 43.8596 32.2636 44.3829 32.2636C44.9063 32.2636 45.3329 31.8369 45.3329 31.3136C45.3329 30.7903 44.9063 30.3636 44.3829 30.3636Z" fill="#5A78AD"/>
<path d="M55.449 33.5969C54.1897 33.5969 53.165 32.5729 53.165 31.3136C53.165 30.0543 54.1897 29.0303 55.449 29.0303C56.7084 29.0303 57.7324 30.0549 57.7324 31.3136C57.7324 32.5723 56.7084 33.5969 55.449 33.5969ZM55.449 30.3636C54.925 30.3636 54.4984 30.7896 54.4984 31.3136C54.4984 31.8369 54.925 32.2636 55.449 32.2636C55.9724 32.2636 56.399 31.8369 56.399 31.3136C56.399 30.7903 55.9724 30.3636 55.449 30.3636Z" fill="#5A78AD"/>
<path d="M30.6 27.5355H8.45402C8.08602 27.5355 7.78736 27.2368 7.78736 26.8688C7.78736 26.5008 8.08602 26.2021 8.45402 26.2021H30.6C30.9687 26.2021 31.2667 26.5008 31.2667 26.8688C31.2667 27.2368 30.9687 27.5355 30.6 27.5355Z" fill="#5A78AD"/>
<path d="M34.512 21.307H8.61198C8.24398 21.307 7.94531 21.0083 7.94531 20.6403C7.94531 20.2723 8.24398 19.9736 8.61198 19.9736H34.512C34.8806 19.9736 35.1786 20.2723 35.1786 20.6403C35.1786 21.0083 34.88 21.307 34.512 21.307Z" fill="#5A78AD"/>
<path d="M16.908 44.0897H3.66267C1.64333 44.0897 0 42.4464 0 40.4271V8.43708C0 6.41775 1.64333 4.77441 3.66267 4.77441H56.3373C58.3567 4.77441 60 6.41775 60 8.43708V11.0117C60 11.3797 59.702 11.6784 59.3333 11.6784C58.9647 11.6784 58.6667 11.3797 58.6667 11.0117V8.43708C58.6667 7.15241 57.622 6.10775 56.3373 6.10775H3.66267C2.378 6.10775 1.33333 7.15241 1.33333 8.43708V40.4264C1.33333 41.7111 2.378 42.7557 3.66267 42.7557H16.908C17.276 42.7557 17.5747 43.0537 17.5747 43.4224C17.5747 43.7911 17.276 44.0897 16.908 44.0897Z" fill="#5A78AD"/>
<path d="M30.5449 44.0902H24.7389C24.3709 44.0902 24.0723 43.7922 24.0723 43.4235C24.0723 43.0548 24.3709 42.7568 24.7389 42.7568H30.5449C30.9136 42.7568 31.2116 43.0548 31.2116 43.4235C31.2116 43.7922 30.9136 44.0902 30.5449 44.0902Z" fill="#5A78AD"/>
<path d="M56.3374 44.0893H36.3514C35.9827 44.0893 35.6847 43.7913 35.6847 43.4227C35.6847 43.054 35.9827 42.756 36.3514 42.756H56.3374C57.622 42.756 58.6667 41.7113 58.6667 40.4267V37.6253H6.85136C6.48336 37.6253 6.18469 37.3273 6.18469 36.9587C6.18469 36.59 6.48336 36.292 6.85136 36.292H59.3334C59.702 36.292 60 36.59 60 36.9587V40.4267C60 42.446 58.3567 44.0893 56.3374 44.0893Z" fill="#5A78AD"/>
<path d="M43.7067 55.2251H17.3847C17.0167 55.2251 16.718 54.9271 16.718 54.5584C16.718 51.8944 18.8854 49.7271 21.55 49.7271H22.0254L24.1047 43.2198C24.2167 42.8698 24.594 42.6738 24.9427 42.7884C25.2934 42.9004 25.4867 43.2751 25.3747 43.6264L23.1474 50.5971C23.0594 50.8731 22.802 51.0604 22.512 51.0604H21.5494C19.848 51.0604 18.4267 52.2804 18.1147 53.8918H42.9753C42.6634 52.2804 41.2414 51.0604 39.5407 51.0604H38.5787C38.2887 51.0604 38.032 50.8731 37.944 50.5971L35.7167 43.6264C35.604 43.2758 35.798 42.9004 36.148 42.7884C36.5007 42.6718 36.874 42.8698 36.986 43.2198L39.0654 49.7271H39.5407C42.2054 49.7271 44.3727 51.8944 44.3727 54.5584C44.3734 54.9271 44.0747 55.2251 43.7067 55.2251Z" fill="#5A78AD"/>
<path d="M31.222 40.4349H29.8687C29.5007 40.4349 29.202 40.1369 29.202 39.7682C29.202 39.3996 29.5007 39.1016 29.8687 39.1016H31.222C31.5907 39.1016 31.8887 39.3996 31.8887 39.7682C31.8887 40.1369 31.5907 40.4349 31.222 40.4349Z" fill="#5A78AD"/>
</svg>
