<svg width="60" height="60" viewBox="0 0 60 60" fill="none" xmlns="http://www.w3.org/2000/svg">
<g clip-path="url(#clip0_2643_10557)">
<path d="M37.0787 35.1484H26.6667H22.9214C21.424 35.1484 20.21 36.3624 20.21 37.8598V38.6624V50.1538H39.7914V38.6624V37.8598C39.7907 36.3624 38.5767 35.1484 37.0787 35.1484Z" fill="#5A78AD"/>
<path d="M56.042 19.2732C56.042 21.7405 54.0413 23.7412 51.574 23.7412C49.1067 23.7412 47.106 21.7405 47.106 19.2732L43.6987 13.7412H49.8047L56.042 19.2732Z" fill="#5A78AD"/>
<path d="M21.606 13.7422L18.1987 19.2742C18.1987 21.7415 20.1993 23.7422 22.6667 23.7422C25.134 23.7422 27.1347 21.7415 27.1347 19.2742V13.7422H21.606Z" fill="#5A78AD"/>
<path d="M38.394 13.7422L41.8013 19.2742C41.8013 21.7415 39.8007 23.7422 37.3333 23.7422C34.866 23.7422 32.8653 21.7415 32.8653 19.2742V13.7422H38.394Z" fill="#5A78AD"/>
<path d="M3.95801 19.2732C3.95801 21.7405 5.95867 23.7412 8.42601 23.7412C10.8933 23.7412 12.894 21.7405 12.894 19.2732L16.3013 13.7412H10.1953L3.95801 19.2732Z" fill="#5A78AD"/>
<path d="M6.57536 50.8193C6.20736 50.8193 5.90869 50.5213 5.90869 50.1526V26.8073C5.90869 26.4393 6.20736 26.1406 6.57536 26.1406C6.94336 26.1406 7.24202 26.4393 7.24202 26.8073V50.1526C7.24202 50.5213 6.94402 50.8193 6.57536 50.8193Z" fill="#5A78AD" fill-opacity="0.6"/>
<path d="M53.4247 50.8197C53.056 50.8197 52.758 50.5217 52.758 50.153V26.8063C52.758 26.4383 53.056 26.1396 53.4247 26.1396C53.7933 26.1396 54.0913 26.4383 54.0913 26.8063V50.153C54.0913 50.5217 53.7927 50.8197 53.4247 50.8197Z" fill="#5A78AD" fill-opacity="0.6"/>
<path d="M59.3333 57.2123H16.876C16.508 57.2123 16.2093 56.9143 16.2093 56.5457C16.2093 56.177 16.508 55.879 16.876 55.879H58.6667V52.611C58.6667 51.6237 57.8633 50.8197 56.8753 50.8197H3.12467C2.13667 50.8197 1.33333 51.6237 1.33333 52.611V55.879H7.762C8.13 55.879 8.42867 56.177 8.42867 56.5457C8.42867 56.9143 8.13 57.2123 7.762 57.2123H0.666667C0.298667 57.2123 0 56.9143 0 56.5457V52.611C0 50.8883 1.402 49.4863 3.12467 49.4863H56.876C58.5987 49.4863 60.0007 50.8883 60.0007 52.611V56.5457C60 56.9143 59.702 57.2123 59.3333 57.2123Z" fill="#5A78AD" fill-opacity="0.6"/>
<path d="M37.3333 27.6142C32.922 27.6142 29.3333 24.0255 29.3333 19.6142V10.5348C29.3333 10.1668 29.632 9.86816 30 9.86816H39.074C39.3053 9.86816 39.52 9.98816 39.642 10.1855L45.2346 19.2648C45.2986 19.3695 45.3333 19.4908 45.3333 19.6142C45.3333 24.0255 41.7446 27.6142 37.3333 27.6142ZM30.6666 11.2015V19.6142C30.6666 23.2902 33.6573 26.2808 37.3333 26.2808C40.948 26.2808 43.8993 23.3902 43.9973 19.7988L38.702 11.2015H30.6666Z" fill="#5A78AD" fill-opacity="0.6"/>
<path d="M52 27.6145C47.6527 27.6145 44.1047 24.1298 44.0027 19.8071L38.5067 10.8851C38.3807 10.6791 38.3747 10.4211 38.4927 10.2105C38.6107 9.99981 38.8333 9.86914 39.0747 9.86914H49.0967C49.2593 9.86914 49.4167 9.92914 49.5387 10.0371L59.7753 19.1165C59.9187 19.2418 60 19.4238 60 19.6145C60 24.0258 56.4113 27.6145 52 27.6145ZM40.2673 11.2018L45.234 19.2645C45.2987 19.3698 45.3333 19.4911 45.3333 19.6145C45.3333 23.2905 48.324 26.2811 52 26.2811C55.5773 26.2811 58.506 23.4485 58.66 19.9085L48.8427 11.2018H40.2673Z" fill="#5A78AD" fill-opacity="0.6"/>
<path d="M22.6667 27.6142C18.2554 27.6142 14.6667 24.0255 14.6667 19.6142C14.6667 19.4908 14.7007 19.3695 14.7654 19.2648L20.358 10.1855C20.4794 9.98883 20.694 9.86816 20.926 9.86816H30C30.368 9.86816 30.6667 10.1668 30.6667 10.5348V19.6142C30.6667 24.0255 27.078 27.6142 22.6667 27.6142ZM16.0027 19.7988C16.1007 23.3895 19.0527 26.2808 22.6667 26.2808C26.3427 26.2808 29.3334 23.2902 29.3334 19.6142V11.2015H21.2987L16.0027 19.7988Z" fill="#5A78AD" fill-opacity="0.6"/>
<path d="M8 27.6142C3.58867 27.6142 0 24.0255 0 19.6142C0 19.4235 0.082 19.2415 0.224 19.1155L10.4613 10.0362C10.5833 9.9275 10.7407 9.86816 10.904 9.86816H20.926C21.1673 9.86816 21.39 9.99883 21.508 10.2095C21.626 10.4202 21.62 10.6788 21.494 10.8842L15.998 19.8062C15.8953 24.1295 12.3473 27.6142 8 27.6142ZM1.34 19.9082C1.494 23.4482 4.42267 26.2808 8 26.2808C11.676 26.2808 14.6667 23.2902 14.6667 19.6142C14.6667 19.4908 14.7007 19.3695 14.7653 19.2648L19.732 11.2022H11.1567L1.34 19.9082Z" fill="#5A78AD" fill-opacity="0.6"/>
<path d="M59.3333 20.2816H0.666667C0.298667 20.2816 0 19.9829 0 19.6149C0 19.2469 0.298667 18.9482 0.666667 18.9482H59.3333C59.702 18.9482 60 19.2469 60 19.6149C60 19.9829 59.702 20.2816 59.3333 20.2816Z" fill="#5A78AD" fill-opacity="0.6"/>
<path d="M49.204 11.2018H10.904C10.536 11.2018 10.2373 10.9031 10.2373 10.5351V5.89644C10.2373 4.18178 11.632 2.78711 13.3467 2.78711H46.7613C48.4753 2.78711 49.8707 4.18178 49.8707 5.89644V10.5351C49.8707 10.9031 49.572 11.2018 49.204 11.2018ZM11.5707 9.86844H48.5373V5.89644C48.5373 4.91711 47.7407 4.12044 46.7613 4.12044H13.3467C12.3673 4.12044 11.5707 4.91711 11.5707 5.89644V9.86844Z" fill="#5A78AD" fill-opacity="0.6"/>
<path d="M43.124 50.8195C42.7553 50.8195 42.4573 50.5215 42.4573 50.1528V34.5255C42.4573 33.3981 41.54 32.4808 40.4126 32.4808H30.6666V36.9088C30.6666 37.2775 30.368 37.5755 30 37.5755C29.632 37.5755 29.3333 37.2775 29.3333 36.9088V31.8141C29.3333 31.4455 29.632 31.1475 30 31.1475H40.412C42.2746 31.1475 43.79 32.6628 43.79 34.5255V50.1528C43.7906 50.5215 43.492 50.8195 43.124 50.8195Z" fill="#5A78AD" fill-opacity="0.6"/>
<path d="M30 50.8194C29.632 50.8194 29.3333 50.5214 29.3333 50.1527V42.4567C29.3333 42.088 29.632 41.79 30 41.79C30.368 41.79 30.6666 42.088 30.6666 42.4567V50.1527C30.6666 50.5214 30.368 50.8194 30 50.8194Z" fill="#5A78AD" fill-opacity="0.6"/>
<path d="M33.5913 44.6115C33.2227 44.6115 32.9247 44.3135 32.9247 43.9448V42.4928C32.9247 42.1242 33.2227 41.8262 33.5913 41.8262C33.96 41.8262 34.258 42.1242 34.258 42.4928V43.9448C34.258 44.3135 33.9593 44.6115 33.5913 44.6115Z" fill="#5A78AD" fill-opacity="0.6"/>
<path d="M16.876 50.8195C16.508 50.8195 16.2094 50.5215 16.2094 50.1528V34.5255C16.2094 32.6628 17.7247 31.1475 19.5874 31.1475H30C30.368 31.1475 30.6667 31.4455 30.6667 31.8141V36.9088C30.6667 37.2775 30.368 37.5755 30 37.5755C29.632 37.5755 29.3334 37.2775 29.3334 36.9088V32.4808H19.5874C18.46 32.4808 17.5427 33.3981 17.5427 34.5255V50.1528C17.5427 50.5215 17.244 50.8195 16.876 50.8195Z" fill="#5A78AD" fill-opacity="0.6"/>
<path d="M30 50.8194C29.632 50.8194 29.3333 50.5214 29.3333 50.1527V42.4567C29.3333 42.088 29.632 41.79 30 41.79C30.368 41.79 30.6666 42.088 30.6666 42.4567V50.1527C30.6666 50.5214 30.368 50.8194 30 50.8194Z" fill="#5A78AD" fill-opacity="0.6"/>
<path d="M26.4093 44.6115C26.0413 44.6115 25.7427 44.3135 25.7427 43.9448V42.4928C25.7427 42.1242 26.0413 41.8262 26.4093 41.8262C26.7773 41.8262 27.076 42.1242 27.076 42.4928V43.9448C27.076 44.3135 26.7773 44.6115 26.4093 44.6115Z" fill="#5A78AD" fill-opacity="0.6"/>
</g>
<defs>
<clipPath id="clip0_2643_10557">
<rect width="60" height="60" fill="white"/>
</clipPath>
</defs>
</svg>
