<svg width="60" height="60" viewBox="0 0 60 60" fill="none" xmlns="http://www.w3.org/2000/svg">
<path d="M30 40.0478C35.6215 40.0478 40.1786 35.4906 40.1786 29.8691C40.1786 24.2476 35.6215 19.6904 30 19.6904C24.3784 19.6904 19.8213 24.2476 19.8213 29.8691C19.8213 35.4906 24.3784 40.0478 30 40.0478Z" fill="#5A78AD"/>
<path d="M30.0002 59.9998C29.9236 59.9998 29.8462 59.9864 29.7702 59.9584C13.2376 53.8858 4.09224 38.4884 2.58624 14.1944C2.56624 13.8698 2.78357 13.5778 3.10024 13.5038C10.6582 11.7464 17.3502 8.98911 22.9889 5.30778C23.2976 5.10645 23.7102 5.19312 23.9116 5.50178C24.1129 5.81045 24.0262 6.22378 23.7176 6.42445C18.0856 10.1011 11.4382 12.8751 3.9529 14.6724C5.54224 38.3898 14.1409 52.7978 30.2296 58.7078C30.5756 58.8344 30.7522 59.2178 30.6256 59.5631C30.5269 59.8324 30.2716 59.9998 30.0002 59.9998Z" fill="#5A78AD"/>
<path d="M30.0007 59.9996C29.866 59.9996 29.7327 59.9582 29.6193 59.8796C29.4407 59.7549 29.334 59.5509 29.334 59.3329V43.2169C29.334 42.8482 29.6327 42.5502 30.0007 42.5502C30.3687 42.5502 30.6673 42.8482 30.6673 43.2169V58.3662C46.1786 52.2542 54.488 37.9442 56.0473 14.6722C45.866 12.2282 37.3387 8.02689 30.6673 2.17022V11.3082C30.6673 11.6762 30.3687 11.9749 30.0007 11.9749C29.6327 11.9749 29.334 11.6762 29.334 11.3082V0.666224C29.334 0.400891 29.4913 0.160224 29.7353 0.0548911C29.9793 -0.0504422 30.2627 -0.00177556 30.456 0.180224C37.226 6.51556 46.1226 10.9989 56.9006 13.5042C57.218 13.5782 57.4353 13.8702 57.4146 14.1949C55.9087 38.4882 46.7633 53.8862 30.2307 59.9582C30.156 59.9856 30.078 59.9996 30.0007 59.9996Z" fill="#5A78AD"/>
<path d="M30.0003 43.8832C26.7416 43.8832 23.5736 42.7326 21.0783 40.6446C20.7963 40.4086 20.759 39.9879 20.995 39.7059C21.231 39.4232 21.651 39.3852 21.9343 39.6226C24.1896 41.5106 27.0543 42.5506 30.0003 42.5506C36.9323 42.5506 42.5716 36.9112 42.5716 29.9792C42.5716 23.0472 36.9323 17.4066 30.0003 17.4066C23.0683 17.4066 17.4283 23.0459 17.4283 29.9786C17.4283 30.3466 17.1296 30.6452 16.7616 30.6452C16.3936 30.6452 16.095 30.3466 16.095 29.9786C16.095 22.3112 22.333 16.0732 30.0003 16.0732C37.6676 16.0732 43.905 22.3112 43.905 29.9786C43.905 37.6459 37.6676 43.8832 30.0003 43.8832Z" fill="#5A78AD"/>
<path d="M29.1465 35.1124C28.9552 35.1124 28.7725 35.0297 28.6465 34.8864L24.3119 29.9604C24.0685 29.6837 24.0952 29.263 24.3719 29.0197C24.6485 28.7757 25.0699 28.8037 25.3125 29.0797L29.1432 33.4317L36.4512 24.987C36.6912 24.7084 37.1132 24.679 37.3912 24.919C37.6699 25.1604 37.6999 25.581 37.4592 25.8597L29.6505 34.8817C29.5245 35.0277 29.3419 35.1117 29.1492 35.1124C29.1485 35.1124 29.1472 35.1124 29.1465 35.1124Z" fill="white"/>
</svg>
