<svg width="58" height="60" viewBox="0 0 58 60" fill="none" xmlns="http://www.w3.org/2000/svg">
<rect x="0.304688" width="57.3913" height="60" rx="5" fill="white"/>
<rect x="0.804688" y="0.5" width="56.3913" height="59" rx="4.5" stroke="#5A78AD" stroke-opacity="0.35"/>
<rect x="5.52222" y="6.08691" width="46.9565" height="22.6087" rx="2" fill="#5A78AD"/>
<rect x="5.52246" y="34.7822" width="46.9565" height="3.47826" rx="1.73913" fill="#5A78AD"/>
<rect x="8.13086" y="11.3047" width="20.8696" height="4.34783" rx="2" fill="white"/>
<rect x="8.13092" y="18.2607" width="20.8696" height="1.73913" rx="0.869565" fill="white"/>
<rect x="8.13086" y="23.4785" width="6.08696" height="0.869565" rx="0.434783" fill="white"/>
<rect x="15.0879" y="23.4785" width="6.08696" height="0.869565" rx="0.434783" fill="white"/>
<rect x="10.7402" y="42.6084" width="35.6522" height="0.869565" rx="0.434783" fill="#5A78AD"/>
<rect x="10.7402" y="45.2178" width="35.6522" height="0.869565" rx="0.434783" fill="#5A78AD"/>
<rect x="19.4355" y="50.4346" width="8.69565" height="1.73913" rx="0.869565" fill="#5A78AD"/>
<rect x="29.8701" y="50.4346" width="8.69565" height="1.73913" rx="0.869565" fill="#5A78AD"/>
<rect width="0.869565" height="0.869565" rx="0.434783" transform="matrix(1 0 0 -1 26.3916 31.3047)" fill="#5A78AD" fill-opacity="0.5"/>
<rect width="0.869565" height="0.869565" rx="0.434783" transform="matrix(1 0 0 -1 28.1309 31.3047)" fill="#5A78AD" fill-opacity="0.5"/>
<rect width="0.869565" height="0.869565" rx="0.434783" transform="matrix(1 0 0 -1 29.8701 31.3047)" fill="#5A78AD" fill-opacity="0.5"/>
<g clip-path="url(#clip0_2643_10582)">
<path d="M46.3917 15.6518C46.3917 16.132 46.0023 16.5214 45.5221 16.5214C45.0418 16.5214 44.6525 16.132 44.6525 15.6518C44.6525 15.1715 45.0418 14.7822 45.5221 14.7822C46.0023 14.7822 46.3917 15.1715 46.3917 15.6518Z" fill="white"/>
<path fill-rule="evenodd" clip-rule="evenodd" d="M43.758 12.7178H43.8079C44.8115 12.7178 45.5981 12.7178 46.2117 12.8003C46.8399 12.8847 47.3356 13.061 47.7246 13.45C48.1137 13.8391 48.2899 14.3347 48.3743 14.9629C48.4568 15.5766 48.4568 16.3631 48.4568 17.3667V17.4051C48.4568 18.235 48.4568 18.9144 48.4118 19.4676C48.3665 20.0235 48.2737 20.488 48.0659 20.8737C47.9743 21.0439 47.8617 21.1963 47.7246 21.3334C47.3356 21.7224 46.8399 21.8987 46.2117 21.9831C45.5981 22.0656 44.8115 22.0656 43.8079 22.0656H43.758C42.7543 22.0656 41.9678 22.0656 41.3541 21.9831C40.726 21.8987 40.2303 21.7224 39.8412 21.3334C39.4963 20.9885 39.3182 20.5592 39.2235 20.0267C39.1305 19.5035 39.1134 18.8527 39.1099 18.0445C39.109 17.8389 39.109 17.6215 39.109 17.3921L39.109 17.3667C39.109 16.3631 39.109 15.5766 39.1915 14.9629C39.276 14.3347 39.4522 13.8391 39.8412 13.45C40.2303 13.061 40.726 12.8847 41.3541 12.8003C41.9678 12.7178 42.7543 12.7178 43.758 12.7178ZM41.441 13.4466C40.8852 13.5214 40.5501 13.6635 40.3024 13.9112C40.0547 14.1588 39.9126 14.4939 39.8379 15.0498C39.7619 15.615 39.7612 16.3577 39.7612 17.3917C39.7612 17.6215 39.7612 17.8376 39.7621 18.0417C39.7656 18.8565 39.7839 19.4528 39.8656 19.9125C39.9457 20.3627 40.0819 20.6518 40.3024 20.8722C40.5501 21.1199 40.8852 21.262 41.441 21.3367C42.0062 21.4127 42.7489 21.4134 43.7829 21.4134C44.8169 21.4134 45.5596 21.4127 46.1248 21.3367C46.6807 21.262 47.0158 21.1199 47.2634 20.8722C47.3547 20.7809 47.4295 20.68 47.4917 20.5645C47.6359 20.2968 47.7191 19.9386 47.7617 19.4146C47.8044 18.8909 47.8047 18.2377 47.8047 17.3917C47.8047 16.3577 47.804 15.615 47.728 15.0498C47.6532 14.4939 47.5111 14.1588 47.2634 13.9112C47.0158 13.6635 46.6807 13.5214 46.1248 13.4466C45.5596 13.3706 44.8169 13.3699 43.7829 13.3699C42.7489 13.3699 42.0062 13.3706 41.441 13.4466Z" fill="white"/>
<path opacity="0.4" d="M47.525 20.4985L46.2944 19.391C45.8424 18.9842 45.1693 18.9437 44.6719 19.2933L44.5422 19.3844C44.1965 19.6274 43.7261 19.5867 43.4273 19.2879L41.5622 17.4228C41.19 17.0505 40.5928 17.0306 40.1966 17.3773L39.7614 17.7582C39.7615 17.8551 39.7617 17.9495 39.7621 18.0414C39.7657 18.8562 39.7839 19.4526 39.8656 19.9122C39.9457 20.3624 40.082 20.6515 40.3024 20.872C40.5501 21.1196 40.8852 21.2618 41.441 21.3365C42.0062 21.4125 42.7489 21.4132 43.7829 21.4132C44.817 21.4132 45.5597 21.4125 46.1249 21.3365C46.6807 21.2618 47.0158 21.1196 47.2635 20.872C47.3547 20.7807 47.4296 20.6797 47.4917 20.5643C47.5032 20.543 47.5143 20.5211 47.525 20.4985Z" fill="white"/>
</g>
<defs>
<clipPath id="clip0_2643_10582">
<rect width="10.4348" height="10.4348" fill="white" transform="translate(38.5656 12.1738)"/>
</clipPath>
</defs>
</svg>
