<svg width="60" height="60" viewBox="0 0 60 60" fill="none" xmlns="http://www.w3.org/2000/svg">
<g clip-path="url(#clip0_2643_10618)">
<path d="M41.4033 18.5459H15.5087V37.9266H41.4033V18.5459Z" fill="#5A78AD"/>
<path d="M44.0704 41.2596H29.7438C29.3758 41.2596 29.0771 40.9616 29.0771 40.5929C29.0771 40.2242 29.3758 39.9262 29.7438 39.9262H43.4038V16.5462H13.5091V18.8909C13.5091 19.2589 13.2104 19.5576 12.8424 19.5576C12.4744 19.5576 12.1758 19.2589 12.1758 18.8909V15.8796C12.1758 15.5116 12.4744 15.2129 12.8424 15.2129H44.0704C44.4391 15.2129 44.7371 15.5116 44.7371 15.8796V40.5929C44.7371 40.9609 44.4391 41.2596 44.0704 41.2596Z" fill="#5A78AD"/>
<path d="M18.4558 41.2597H12.8424C12.4744 41.2597 12.1758 40.9617 12.1758 40.593V37.235C12.1758 36.8664 12.4744 36.5684 12.8424 36.5684C13.2104 36.5684 13.5091 36.8664 13.5091 37.235V39.9264H18.4558C18.8238 39.9264 19.1224 40.2244 19.1224 40.593C19.1224 40.9617 18.8238 41.2597 18.4558 41.2597Z" fill="#5A78AD"/>
<path d="M59.3333 41.26C58.9667 41.26 58.6693 40.9647 58.6667 40.598L58.6033 31.1733L51.7687 23.9993H44.7367V39.9267H48.5267C48.8953 39.9267 49.1933 40.2247 49.1933 40.5933C49.1933 40.962 48.8953 41.26 48.5267 41.26H44.07C43.7013 41.26 43.4033 40.962 43.4033 40.5933V23.3327C43.4033 22.9647 43.7013 22.666 44.07 22.666H52.0547C52.2367 22.666 52.4113 22.7407 52.5373 22.8727L59.7507 30.4447C59.868 30.568 59.9333 30.7307 59.9347 30.9L60 40.5887C60.0027 40.9573 59.706 41.2573 59.338 41.26C59.3367 41.26 59.3347 41.26 59.3333 41.26Z" fill="#5A78AD"/>
<path d="M53.928 31.5707H48.2847C47.916 31.5707 47.618 31.2727 47.618 30.904V23.3327C47.618 22.9647 47.916 22.666 48.2847 22.666C48.6534 22.666 48.9514 22.9647 48.9514 23.3327V30.238H53.928C54.2967 30.238 54.5947 30.5367 54.5947 30.9047C54.5947 31.2727 54.296 31.5707 53.928 31.5707Z" fill="#5A78AD"/>
<path d="M21.9837 44.7864C19.6711 44.7864 17.7891 42.9051 17.7891 40.5924C17.7891 38.2798 19.6704 36.3984 21.9837 36.3984C24.2964 36.3984 26.1777 38.2798 26.1777 40.5924C26.1777 42.9051 24.2957 44.7864 21.9837 44.7864ZM21.9837 37.7318C20.4064 37.7318 19.1224 39.0151 19.1224 40.5924C19.1224 42.1698 20.4057 43.4531 21.9837 43.4531C23.5617 43.4531 24.8444 42.1698 24.8444 40.5924C24.8444 39.0151 23.5611 37.7318 21.9837 37.7318Z" fill="#5A78AD"/>
<path d="M52.055 44.7864C49.7417 44.7864 47.8604 42.9051 47.8604 40.5924C47.8604 38.2798 49.7417 36.3984 52.055 36.3984C54.3677 36.3984 56.249 38.2798 56.249 40.5924C56.249 42.9051 54.3677 44.7864 52.055 44.7864ZM52.055 37.7318C50.4777 37.7318 49.1937 39.0151 49.1937 40.5924C49.1937 42.1698 50.4777 43.4531 52.055 43.4531C53.6324 43.4531 54.9157 42.1698 54.9157 40.5924C54.9157 39.0151 53.6324 37.7318 52.055 37.7318Z" fill="#5A78AD"/>
<path d="M28.456 28.9027H0.666667C0.298667 28.9027 0 28.604 0 28.236C0 27.868 0.298667 27.5693 0.666667 27.5693H28.456C28.824 27.5693 29.1227 27.868 29.1227 28.236C29.1227 28.604 28.824 28.9027 28.456 28.9027Z" fill="#5A78AD"/>
<path d="M28.4563 23.2581H7.72233C7.35433 23.2581 7.05566 22.9595 7.05566 22.5915C7.05566 22.2235 7.35433 21.9248 7.72233 21.9248H28.457C28.825 21.9248 29.1237 22.2235 29.1237 22.5915C29.1237 22.9595 28.8243 23.2581 28.4563 23.2581Z" fill="#5A78AD"/>
<path d="M28.4563 34.5462H7.72233C7.35433 34.5462 7.05566 34.2482 7.05566 33.8796C7.05566 33.5109 7.35433 33.2129 7.72233 33.2129H28.457C28.825 33.2129 29.1237 33.5109 29.1237 33.8796C29.1237 34.2482 28.8243 34.5462 28.4563 34.5462Z" fill="#5A78AD"/>
</g>
<defs>
<clipPath id="clip0_2643_10618">
<rect width="60" height="60" fill="white"/>
</clipPath>
</defs>
</svg>
