<svg width="45" height="44" viewBox="0 0 45 44" fill="none" xmlns="http://www.w3.org/2000/svg">
<path d="M22.2 0C10.0497 0 0.200012 9.84974 0.200012 22C0.200012 34.1503 10.0497 44 22.2 44C33.101 44 42.1502 36.0716 43.8958 25.6667H43.7379C42.1098 31.9925 36.3674 36.6667 29.5333 36.6667C21.4332 36.6667 14.8667 30.1002 14.8667 22C14.8667 13.8998 21.4332 7.33333 29.5333 7.33333C36.3674 7.33333 42.1098 12.0075 43.7379 18.3333H43.8958C42.1502 7.92838 33.101 0 22.2 0Z" fill="#A4BCFD"/>
<path d="M0.200012 22C0.200012 9.84974 10.0497 0 22.2 0C33.101 0 42.1502 7.92838 43.8958 18.3333H29.0713C27.4431 12.0075 21.7008 7.33333 14.8667 7.33333C6.7665 7.33333 0.200012 13.8998 0.200012 22Z" fill="#3538CD"/>
<path d="M0.200012 22C0.200012 34.1503 10.0497 44 22.2 44C33.101 44 42.1502 36.0716 43.8958 25.6667H29.0713C27.4431 31.9925 21.7008 36.6667 14.8667 36.6667C6.7665 36.6667 0.200012 30.1002 0.200012 22Z" fill="#3538CD"/>
</svg>
