<svg width="45" height="44" viewBox="0 0 45 44" fill="none" xmlns="http://www.w3.org/2000/svg">
<path d="M16.5143 31.4284C25.193 31.4284 32.2285 24.3929 32.2285 15.7141C32.2285 14.7306 32.1382 13.7681 31.9653 12.8345C31.0318 12.6617 30.0693 12.5713 29.0857 12.5713C20.4069 12.5713 13.3714 19.6068 13.3714 28.2856C13.3714 29.2692 13.4618 30.2317 13.6347 31.1652C14.5682 31.3381 15.5307 31.4284 16.5143 31.4284Z" fill="#175CD3"/>
<path fill-rule="evenodd" clip-rule="evenodd" d="M13.6347 31.1653C6.33116 29.8127 0.799988 23.4095 0.799988 15.7143C0.799988 7.03553 7.83551 0 16.5143 0C24.2094 0 30.6127 5.53118 31.9653 12.8347C31.0318 12.6618 30.0693 12.5714 29.0857 12.5714C20.4069 12.5714 13.3714 19.607 13.3714 28.2857C13.3714 29.2693 13.4618 30.2318 13.6347 31.1653Z" fill="#1570EF"/>
<path fill-rule="evenodd" clip-rule="evenodd" d="M16.5142 31.4289C25.193 31.4289 32.2285 24.3933 32.2285 15.7146C32.2285 14.731 32.1381 13.7685 31.9652 12.835C39.2687 14.1875 44.7999 20.5908 44.7999 28.286C44.7999 36.9648 37.7644 44.0003 29.0856 44.0003C21.3904 44.0003 14.9872 38.4691 13.6346 31.1656C14.5681 31.3385 15.5306 31.4289 16.5142 31.4289Z" fill="#2E90FA"/>
</svg>
