<svg width="45" height="44" viewBox="0 0 45 44" fill="none" xmlns="http://www.w3.org/2000/svg">
<path fill-rule="evenodd" clip-rule="evenodd" d="M22.6001 34.4667C29.4852 34.4667 35.0668 28.8851 35.0668 22C35.0668 15.1149 29.4852 9.53333 22.6001 9.53333C15.7149 9.53333 10.1334 15.1149 10.1334 22C10.1334 28.8851 15.7149 34.4667 22.6001 34.4667ZM22.6001 44C34.7504 44 44.6001 34.1503 44.6001 22C44.6001 9.84974 34.7504 0 22.6001 0C10.4498 0 0.600098 9.84974 0.600098 22C0.600098 34.1503 10.4498 44 22.6001 44Z" fill="#6938EF"/>
<path d="M22.8518 22.4814C25.1428 20.1903 28.8574 20.1903 31.1485 22.4814L42.5565 33.8894C44.8475 36.1804 44.8475 39.895 42.5565 42.1861C40.2654 44.4772 36.5508 44.4772 34.2597 42.1861L22.8518 30.7781C20.5607 28.487 20.5607 24.7724 22.8518 22.4814Z" fill="#F670C7"/>
<path d="M26.0551 33.9816L33.3004 41.2269C36.7756 39.2887 39.6709 36.4357 41.6605 32.9936L34.4746 25.8076C33.2123 29.747 30.0441 32.8334 26.0551 33.9816Z" fill="#6519BA"/>
</svg>
